<?xml version="1.0" encoding="utf-8"?>
<svg version="1.1" viewBox="0 0 100 100" width="100px" height="100px" xmlns="http://www.w3.org/2000/svg">
  <path d="M 39.143 98.439 C 42.864 98.439 75.056 98.15 75.982 88.501 C 75.998 88.405 76.007 88.31 76.012 88.212 C 76.013 88.167 76.026 88.125 76.026 88.079 C 76.026 88.053 76.019 88.029 76.018 88.004 C 76.015 87.906 76.002 87.809 75.988 87.711 C 75.9 86.665 75.457 85.725 74.712 84.887 L 41.373 19.043 C 40.947 18.202 40.085 17.672 39.143 17.672 C 38.201 17.672 37.338 18.202 36.913 19.043 L 3.574 84.888 C 2.829 85.727 2.386 86.666 2.298 87.712 C 2.283 87.81 2.27 87.907 2.268 88.005 C 2.268 88.031 2.26 88.054 2.26 88.08 C 2.26 88.126 2.272 88.167 2.274 88.213 C 2.279 88.31 2.287 88.406 2.304 88.502 C 3.23 98.149 35.422 98.439 39.143 98.439 Z M 39.143 25.707 L 67.064 80.852 C 56.97 77.85 41.641 77.721 39.143 77.721 C 36.645 77.721 21.316 77.851 11.222 80.852 L 39.143 25.707 Z M 7.563 88.08 L 7.737 87.735 C 10.338 85.694 21.487 82.721 39.143 82.721 C 56.799 82.721 67.948 85.694 70.549 87.735 L 70.723 88.08 L 70.791 88.213 C 68.725 90.253 57.42 93.439 39.143 93.439 C 20.866 93.439 9.561 90.253 7.495 88.213 L 7.563 88.08 Z" style="transform-box: fill-box; transform-origin: 50% 50%;" transform="matrix(-0.707107, -0.707107, 0.707107, -0.707107, 0.000005, -0.000003)"/>
</svg>