<?xml version="1.0" encoding="utf-8"?>
<svg version="1.1" viewBox="0 0 100 100" width="100px" height="100px" xmlns="http://www.w3.org/2000/svg">
  <path d="M94.951,7.011c-0.015-0.076-0.043-0.146-0.065-0.219c-0.025-0.083-0.043-0.167-0.077-0.247  c-0.036-0.087-0.086-0.167-0.131-0.249c-0.033-0.06-0.06-0.123-0.098-0.181c-0.183-0.275-0.419-0.511-0.694-0.694  c-0.057-0.038-0.118-0.063-0.177-0.096c-0.083-0.046-0.164-0.096-0.253-0.133c-0.079-0.033-0.162-0.051-0.244-0.076  c-0.074-0.022-0.145-0.051-0.222-0.066C92.828,5.017,92.664,5,92.5,5H23.733c-0.663,0-1.299,0.263-1.768,0.732L5.735,21.963  c-0.158,0.157-0.285,0.341-0.397,0.535c-0.025,0.043-0.048,0.085-0.07,0.129c-0.096,0.194-0.175,0.396-0.219,0.614  c-0.001,0.006-0.001,0.013-0.002,0.019C5.018,23.415,5,23.572,5,23.733V92.5C5,93.881,6.119,95,7.5,95h68.767  c0.01,0,0.019-0.003,0.029-0.003c0.155-0.002,0.31-0.016,0.461-0.046c0.095-0.019,0.183-0.053,0.274-0.082  c0.064-0.021,0.13-0.034,0.193-0.06c0.104-0.043,0.199-0.1,0.295-0.156c0.044-0.026,0.092-0.045,0.135-0.073  c0.138-0.092,0.266-0.197,0.383-0.314l16.228-16.228c0.117-0.117,0.222-0.246,0.315-0.384c0.039-0.058,0.065-0.122,0.099-0.182  c0.045-0.082,0.094-0.161,0.13-0.248c0.033-0.081,0.052-0.165,0.077-0.248c0.022-0.073,0.05-0.143,0.065-0.219  C94.983,76.594,95,76.431,95,76.267V7.5C95,7.336,94.983,7.172,94.951,7.011z M73.767,90H10V26.233h63.767V90z M75.231,21.233  H13.535L24.769,10h61.696L75.231,21.233z M90,75.231L78.767,86.464V24.769L90,13.535V75.231z"/>
</svg>