<?xml version="1.0" encoding="utf-8"?>
<svg version="1.1" viewBox="0 0 100 100" width="100px" height="100px" xmlns="http://www.w3.org/2000/svg">
  <path d="M 69.086 22.097 C 67.786 22.497 66.386 21.697 65.986 20.297 L 62.786 8.197 C 62.386 6.897 63.186 5.497 64.586 5.097 C 64.786 4.997 64.986 4.997 65.186 4.997 C 66.286 4.997 67.286 5.697 67.586 6.897 L 70.786 18.997 C 71.186 20.397 70.386 21.797 69.086 22.097 Z" style="transform-box: fill-box; transform-origin: 50% 50%;" transform="matrix(-1, 0, 0, -1, 0.000001, 0)"/>
  <path d="M 72.987 36.397 C 73.187 36.297 73.387 36.297 73.587 36.297 C 74.687 36.297 75.687 36.997 75.987 38.197 L 79.187 50.297 C 79.587 51.597 78.787 52.997 77.387 53.397 C 76.087 53.797 74.687 52.997 74.287 51.597 L 71.187 39.497 C 70.787 38.097 71.587 36.797 72.987 36.397 Z" style="transform-box: fill-box; transform-origin: 50% 50%;" transform="matrix(-1, 0, 0, -1, -0.000005, -0.000003)"/>
  <path d="M 88.574 15.05 L 79.774 23.85 C 78.774 24.85 77.174 24.85 76.274 23.85 C 75.274 22.85 75.274 21.25 76.274 20.35 L 85.074 11.55 C 85.574 11.05 86.174 10.85 86.874 10.85 C 87.574 10.85 88.174 11.05 88.674 11.55 C 89.574 12.45 89.574 14.05 88.574 15.05 Z" style="transform-box: fill-box; transform-origin: 50% 50%;" transform="matrix(-1, 0, 0, -1, -0.000002, -0.000001)"/>
  <path d="M 46.828 22.837 C 47.128 21.737 48.128 20.937 49.228 20.937 C 49.428 20.937 49.628 20.937 49.828 21.037 L 61.928 24.237 C 63.228 24.637 64.028 25.937 63.728 27.337 C 63.328 28.637 62.028 29.437 60.628 29.137 L 48.528 25.937 C 47.228 25.537 46.428 24.137 46.828 22.837 Z" style="transform-box: fill-box; transform-origin: 50% 50%;" transform="matrix(-1, 0, 0, -1, 0.000002, -0.000002)"/>
  <path d="M 80.587 29.337 C 80.787 29.337 80.987 29.337 81.187 29.437 L 93.287 32.637 C 94.587 33.037 95.387 34.337 95.087 35.737 C 94.687 37.037 93.387 37.837 91.987 37.537 L 79.987 34.337 C 78.687 33.937 77.887 32.637 78.187 31.237 C 78.487 30.137 79.487 29.337 80.587 29.337 Z" style="transform-box: fill-box; transform-origin: 50% 50%;" transform="matrix(-1, 0, 0, -1, 0.000004, 0.000003)"/>
  <path d="M 5.787 94.25 C 4.787 93.25 4.787 91.65 5.787 90.75 L 69.087 27.45 C 69.587 26.95 70.187 26.75 70.887 26.75 C 71.587 26.75 72.187 26.95 72.687 27.45 C 73.687 28.45 73.687 30.05 72.687 30.95 L 9.287 94.25 C 8.287 95.25 6.687 95.25 5.787 94.25 Z" style="transform-box: fill-box; transform-origin: 50% 50%;" transform="matrix(-1, 0, 0, -1, 0.000005, 0)"/>
</svg>