<?xml version="1.0" encoding="utf-8"?>
<svg version="1.1" viewBox="0 0 100 100" width="100px" height="100px" xmlns="http://www.w3.org/2000/svg">
  <path d="M50,95c24.813,0,45-20.187,45-45S74.813,5,50,5S5,25.187,5,50S25.187,95,50,95z M50,10c21.216,0,38.618,16.605,39.914,37.5  H56.896c-1.026-2.82-3.726-4.844-6.896-4.844c-4.049,0-7.344,3.294-7.344,7.344s3.294,7.344,7.344,7.344  c3.171,0,5.87-2.023,6.896-4.844h33.018C88.618,73.395,71.216,90,50,90c-22.056,0-40-17.944-40-40S27.944,10,50,10z M52.344,50  c0,1.292-1.051,2.344-2.344,2.344S47.656,51.292,47.656,50s1.051-2.344,2.344-2.344S52.344,48.708,52.344,50z"/>
</svg>