<?xml version="1.0" encoding="utf-8"?>
<svg version="1.1" viewBox="0 0 100 100" width="100px" height="100px" xmlns="http://www.w3.org/2000/svg">
  <path d="M95,50C95,25.187,74.813,5,50,5c-12.407,0-23.657,5.047-31.805,13.195L18.18,18.18c-0.226,0.226-0.434,0.464-0.641,0.704  C9.782,26.973,5,37.935,5,50c0,24.813,20.187,45,45,45c12.183,0,23.242-4.873,31.354-12.764c0.153-0.141,0.317-0.268,0.466-0.416  l-0.015-0.016C89.953,73.656,95,62.406,95,50z M21.312,22.166C28.586,14.671,38.755,10,50,10c10.131,0,19.387,3.792,26.441,10.023  L40.156,56.309c-2.342-1.695-5.025-2.648-7.638-2.648c-1.229,0-2.401,0.219-3.468,0.633C19.579,41.489,16.074,28.216,21.312,22.166z   M40.304,70.303c-0.856,0.857-2.007,1.037-2.822,1.037c-2.012,0-4.262-1.049-6.018-2.805c-2.875-2.875-3.684-6.922-1.768-8.838  c0.856-0.857,2.007-1.037,2.822-1.037c2.012,0,4.262,1.049,6.018,2.805C41.41,64.34,42.22,68.387,40.304,70.303z M10,50  c0-6.287,1.462-12.237,4.058-17.536c0.759,7.477,4.613,16.318,11.081,24.975c-2.294,3.484-1.819,8.574,1.166,12.721l-6.281,6.281  C13.792,69.387,10,60.131,10,50z M50,90c-10.13,0-19.387-3.793-26.442-10.023l6.286-6.285c2.342,1.695,5.025,2.648,7.638,2.648  c1.889,0,3.644-0.516,5.086-1.469c8.66,6.469,17.502,10.311,24.979,11.064C62.246,88.535,56.292,90,50,90z M77.852,78.671  c-6.045,5.263-19.34,1.756-32.161-7.732c1.269-3.331,0.553-7.558-1.995-11.099l36.281-36.282C86.207,30.613,90,39.87,90,50  C90,61.236,85.336,71.398,77.852,78.671z"/>
</svg>