<?xml version="1.0" encoding="utf-8"?>
<svg version="1.1" viewBox="0 0 100 100" width="100px" height="100px" xmlns="http://www.w3.org/2000/svg">
  <path d="M29.5,5h-22C6.119,5,5,6.119,5,7.5v22C5,30.881,6.119,32,7.5,32h22c1.381,0,2.5-1.119,2.5-2.5v-22C32,6.119,30.881,5,29.5,5  z M27,27H10V10h17V27z"/>
  <path d="M61,36.5H39c-1.381,0-2.5,1.119-2.5,2.5v22c0,1.381,1.119,2.5,2.5,2.5h22c1.381,0,2.5-1.119,2.5-2.5V39  C63.5,37.619,62.381,36.5,61,36.5z M58.5,58.5h-17v-17h17V58.5z"/>
  <path d="M29.5,36.5h-22C6.119,36.5,5,37.619,5,39v22c0,1.381,1.119,2.5,2.5,2.5h22c1.381,0,2.5-1.119,2.5-2.5V39  C32,37.619,30.881,36.5,29.5,36.5z M27,58.5H10v-17h17V58.5z"/>
  <path d="M61,5H39c-1.381,0-2.5,1.119-2.5,2.5v22c0,1.381,1.119,2.5,2.5,2.5h22c1.381,0,2.5-1.119,2.5-2.5v-22  C63.5,6.119,62.381,5,61,5z M58.5,27h-17V10h17V27z"/>
  <path d="M92.5,5h-22C69.119,5,68,6.119,68,7.5v22c0,1.381,1.119,2.5,2.5,2.5h22c1.381,0,2.5-1.119,2.5-2.5v-22  C95,6.119,93.881,5,92.5,5z M90,27H73V10h17V27z"/>
  <path d="M92.5,36.5h-22c-1.381,0-2.5,1.119-2.5,2.5v22c0,1.381,1.119,2.5,2.5,2.5h22c1.381,0,2.5-1.119,2.5-2.5V39  C95,37.619,93.881,36.5,92.5,36.5z M90,58.5H73v-17h17V58.5z"/>
  <path d="M61,68H39c-1.381,0-2.5,1.119-2.5,2.5v22c0,1.381,1.119,2.5,2.5,2.5h22c1.381,0,2.5-1.119,2.5-2.5v-22  C63.5,69.119,62.381,68,61,68z M58.5,90h-17V73h17V90z"/>
  <path d="M29.5,68h-22C6.119,68,5,69.119,5,70.5v22C5,93.881,6.119,95,7.5,95h22c1.381,0,2.5-1.119,2.5-2.5v-22  C32,69.119,30.881,68,29.5,68z M27,90H10V73h17V90z"/>
  <path d="M92.5,68h-22c-1.381,0-2.5,1.119-2.5,2.5v22c0,1.381,1.119,2.5,2.5,2.5h22c1.381,0,2.5-1.119,2.5-2.5v-22  C95,69.119,93.881,68,92.5,68z M90,90H73V73h17V90z"/>
</svg>