<?xml version="1.0" encoding="utf-8"?>
<svg version="1.1" viewBox="0 0 100 100" width="100px" height="100px" xmlns="http://www.w3.org/2000/svg">
  <path d="M94.886,6.791c-0.025-0.083-0.043-0.167-0.077-0.247c-0.036-0.087-0.086-0.167-0.131-0.249  c-0.033-0.06-0.06-0.123-0.098-0.181c-0.183-0.275-0.419-0.511-0.694-0.694c-0.057-0.038-0.118-0.063-0.177-0.096  c-0.083-0.046-0.164-0.096-0.253-0.133c-0.079-0.033-0.162-0.051-0.244-0.076c-0.074-0.022-0.145-0.051-0.222-0.066  C92.828,5.017,92.664,5,92.5,5H23.733c-0.16,0-0.315,0.018-0.467,0.047c-0.008,0.002-0.017,0.001-0.026,0.003  c-0.217,0.043-0.419,0.123-0.612,0.218c-0.045,0.022-0.087,0.046-0.13,0.071c-0.194,0.111-0.378,0.239-0.535,0.396L5.735,21.963  c-0.158,0.157-0.285,0.341-0.397,0.535c-0.025,0.043-0.048,0.085-0.07,0.129c-0.096,0.194-0.175,0.396-0.219,0.614  c-0.001,0.006-0.001,0.013-0.002,0.019C5.018,23.415,5,23.572,5,23.733V92.5c0,0.164,0.017,0.328,0.049,0.489  c0.015,0.075,0.043,0.144,0.064,0.217c0.025,0.084,0.044,0.169,0.078,0.25c0.036,0.086,0.085,0.165,0.129,0.246  c0.034,0.061,0.06,0.125,0.1,0.184c0.183,0.275,0.419,0.511,0.694,0.694c0.057,0.038,0.12,0.064,0.18,0.098  c0.082,0.046,0.162,0.095,0.25,0.132c0.08,0.033,0.164,0.052,0.247,0.077c0.073,0.022,0.143,0.05,0.219,0.065  C7.172,94.983,7.336,95,7.5,95h68.767c0.01,0,0.019-0.003,0.029-0.003c0.155-0.002,0.31-0.016,0.461-0.046  c0.095-0.019,0.183-0.053,0.274-0.082c0.064-0.021,0.13-0.034,0.193-0.06c0.104-0.043,0.199-0.1,0.295-0.156  c0.044-0.026,0.092-0.045,0.135-0.073c0.138-0.092,0.266-0.197,0.383-0.314l16.228-16.228c0.158-0.157,0.285-0.341,0.396-0.535  c0.025-0.043,0.048-0.085,0.07-0.13c0.096-0.193,0.175-0.396,0.219-0.614c0.001-0.006,0.001-0.013,0.002-0.019  C94.982,76.585,95,76.428,95,76.267V7.5c0-0.164-0.017-0.328-0.049-0.489C94.936,6.935,94.907,6.865,94.886,6.791z M21.233,13.536  v7.698h-7.698L21.233,13.536z M10,26.233h11.233v48.998L10,86.465V26.233z M73.767,90H13.535l11.233-11.233h48.998V90z   M73.767,73.767H26.233V26.233h47.533V73.767z M75.231,21.233H26.233V10h60.231L75.231,21.233z M78.767,86.464v-7.698h7.698  L78.767,86.464z M90,73.767H78.767V24.769L90,13.535V73.767z" style="fill: rgb(255, 20, 20); visibility: hidden;"/>
  <path d="M 90.908 11.111 C 90.883 11.028 90.865 10.944 90.831 10.864 C 90.795 10.777 90.745 10.697 90.7 10.615 C 90.667 10.555 90.64 10.492 90.602 10.434 C 90.419 10.159 90.183 9.923 89.908 9.74 C 89.851 9.702 89.79 9.677 89.731 9.644 C 89.648 9.598 89.567 9.548 89.478 9.511 C 89.399 9.478 89.316 9.46 89.234 9.435 C 89.16 9.413 89.089 9.384 89.012 9.369 C 88.85 9.337 88.686 9.32 88.522 9.32 L 19.755 9.32 C 19.595 9.32 19.44 9.338 19.288 9.367 C 19.28 9.369 19.271 9.368 19.262 9.37 C 19.045 9.413 18.843 9.493 18.65 9.588 C 18.605 9.61 18.563 9.634 18.52 9.659 C 18.326 9.77 18.142 9.898 17.985 10.055 L 9.491 18.708 C 9.333 18.865 9.206 19.049 9.094 19.243 C 9.069 19.286 9.046 19.328 9.024 19.372 C 8.928 19.566 8.849 19.768 8.805 19.986 C 8.804 19.992 8.804 19.999 8.803 20.005 C 8.774 20.16 8.756 20.317 8.756 20.478 L 8.756 89.245 C 8.756 89.409 8.773 89.573 8.805 89.734 C 8.82 89.809 8.848 89.878 8.869 89.951 C 8.894 90.035 8.913 90.12 8.947 90.201 C 8.983 90.287 9.032 90.366 9.076 90.447 C 9.11 90.508 9.136 90.572 9.176 90.631 C 9.359 90.906 9.595 91.142 9.87 91.325 C 9.927 91.363 9.99 91.389 10.05 91.423 C 10.132 91.469 10.212 91.518 10.3 91.555 C 10.38 91.588 10.464 91.607 10.547 91.632 C 10.62 91.654 10.69 91.682 10.766 91.697 C 10.928 91.728 11.092 91.745 11.256 91.745 L 80.003 91.69 C 80.013 91.69 80.022 91.687 80.032 91.687 C 80.187 91.685 80.342 91.671 80.493 91.641 C 80.588 91.622 80.676 91.588 80.767 91.559 C 80.831 91.538 80.897 91.525 80.96 91.499 C 81.064 91.456 81.159 91.399 81.255 91.343 C 81.299 91.317 81.347 91.298 81.39 91.27 C 81.528 91.178 81.656 91.073 81.773 90.956 L 90.287 82.358 C 90.445 82.201 90.572 82.017 90.683 81.823 C 90.708 81.78 90.731 81.738 90.753 81.693 C 90.849 81.5 90.928 81.297 90.972 81.079 C 90.973 81.073 90.973 81.066 90.974 81.06 C 91.004 80.905 91.022 80.748 91.022 80.587 L 91.022 11.82 C 91.022 11.656 91.005 11.492 90.973 11.331 C 90.958 11.255 90.929 11.185 90.908 11.111 Z M 13.756 22.978 L 17.255 22.929 L 17.255 79.551 L 13.756 83.21 L 13.756 22.978 Z M 77.503 86.69 L 17.291 86.745 L 20.79 83.087 L 77.511 83.087 L 77.502 86.69 L 77.503 86.69 Z M 77.512 78.087 L 22.255 78.087 L 22.255 22.929 L 77.517 22.931 L 77.511 78.087 L 77.512 78.087 Z M 78.982 17.931 L 22.255 17.929 L 22.255 14.32 L 82.486 14.32 L 78.982 17.931 Z M 86.022 78.087 L 82.512 78.087 L 82.518 21.467 L 86.022 17.855 L 86.022 78.087 Z"/>
</svg>
