<?xml version="1.0" encoding="utf-8"?>
<svg width="512" height="512" version="1.1" viewBox="0 0 512 512" xmlns="http://www.w3.org/2000/svg">
  <defs>
    <filter id="shadow-1" height="300%" width="300%" x="-100%" y="-100%">
      <feFlood flood-color="rgba(0, 0, 0, 1)" result="flood"/>
      <feComposite in="flood" in2="SourceGraphic" operator="atop" result="composite"/>
      <feGaussianBlur in="composite" stdDeviation="10" result="blur"/>
      <feOffset dx="0" dy="0" result="offset"/>
      <feComposite in="SourceGraphic" in2="offset" operator="over"/>
    </filter>
  </defs>
  <g style="fill: var(--icon-fill, #fff); filter: url(#shadow-1); touch-action: none;">
    <path d="M22.472 28.76c107.552 68.108 207.02 121.53 322.01 133.68 40.707 4.3 47.814 34.94 31.675 70.102-26.52 57.774 16.43 143.547 112.342 195.465-5.983 27.987-46.316 51.545-71.16 43.272-20.682-43.168-52.9-88.738-87.806-76.376-71.394 25.286-144.915 30.663-194.836 3.448 66.227-8.987 129.273-26.595 184.8-54.342C219.18 359.013 100.407 359.4 55.4 309.038c91.057 3.638 164.862-5.6 247.26-26.224C192.912 272.707 72.247 252.64 38.277 185.35c80.977 25.247 189.57 34.646 263.032 35.158C186.86 191.675 32.936 112.722 22.47 28.76z"/>
  </g>
</svg>
