<?xml version="1.0" encoding="utf-8"?>
<svg width="512px" height="512px" viewBox="0 0 512 512" xmlns="http://www.w3.org/2000/svg">
  <path d="M 283.054 288.127 C 298.056 288.127 310.829 298.333 314.783 312.127 L 375.06 312.1 C 379.014 298.306 391.787 288.1 406.789 288.1 L 406.79 288.1 C 425.689 288.1 439.793 302.192 439.793 321.057 C 439.793 338.931 423.911 354.1 406.79 354.1 C 391.788 354.1 379.015 343.894 375.061 330.1 L 314.782 330.127 C 310.828 343.921 298.055 354.127 283.053 354.127 C 268.051 354.127 255.278 343.921 251.324 330.127 L 72.924 330.127 L 72.924 312.127 L 251.324 312.127 C 255.278 298.333 268.051 288.127 283.053 288.127 L 283.054 288.127 Z M 268.053 321.127 C 268.053 329.517 274.663 336.127 283.053 336.127 C 291.443 336.127 298.053 329.517 298.053 321.127 C 298.053 312.737 291.443 306.127 283.053 306.127 C 274.663 306.127 268.053 312.737 268.053 321.127 Z M 406.79 306.1 C 398.4 306.1 391.79 312.71 391.79 321.1 C 391.79 329.49 398.4 336.1 406.79 336.1 C 415.18 336.1 421.79 329.49 421.79 321.1 C 421.79 312.71 415.18 306.1 406.79 306.1 Z M 55 73 L 55 455 L 37 455 L 37 73 L 55 73 Z M 473.045 73 L 474.955 455 L 456.955 455 L 455.045 73 L 473.045 73 Z M 136 181.736 C 140.64 169.102 152.83 160 167 160 C 181.638 160 194.157 169.715 198.43 183 L 437.596 183 L 437.686 201 L 199.004 201 C 195.394 215.3 182.363 226 167 226 C 152.83 226 140.64 216.898 136 204.264 C 131.36 216.898 119.17 226 105 226 C 89.637 226 76.606 215.3 72.996 201 C 72.091 197.38 71.165 189.634 73.57 183 C 77.843 169.715 90.362 160 105 160 C 119.17 160 131.36 169.102 136 181.736 Z M 90 193 C 90 201.39 96.61 208 105 208 C 113.39 208 120 201.39 120 193 C 120 184.61 113.39 178 105 178 C 96.61 178 90 184.61 90 193 Z M 152 193 C 152 201.39 158.61 208 167 208 C 175.39 208 184 201.39 184 193 C 184 184.61 175.39 178 167 178 C 158.61 178 152 184.61 152 193 Z M 200.001 223 C 215.003 223 227.776 233.206 231.73 247 L 437.914 247 L 438.006 265 L 231.729 265 C 227.775 278.794 215.002 289 200 289 C 184.998 289 172.225 278.794 168.271 265 L 73 265 L 73 247 L 168.271 247 C 172.225 233.206 184.998 223 200 223 L 200.001 223 Z M 185 256 C 185 264.39 191.61 271 200 271 C 208.39 271 215 264.39 215 256 C 215 247.61 208.39 241 200 241 C 191.61 241 185 247.61 185 256 Z M 345 354 C 358.892 354 370.873 362.752 375.71 375 L 438.555 375 L 438.645 393 L 377.436 393 C 374.583 408.29 361.07 420 345 420 C 328.93 420 315.417 408.29 312.564 393 L 73 393 L 73 375 L 314.29 375 C 319.126 362.752 331.107 354 344.999 354 L 345 354 Z M 330 387 C 330 395.39 336.61 402 345 402 C 353.39 402 360 395.39 360 387 C 360 378.61 353.39 372 345 372 C 336.61 372 330 378.61 330 387 Z M 487 473 L 487 489 L 25 489 L 25 473 L 487 473 Z" fill="#2d5281" fill-opacity="1" style=""/>
</svg>