<svg viewBox="0 0 512 512" width="512px" height="512px" xmlns="http://www.w3.org/2000/svg">
  <symbol id="blackFlag-armorClass" viewbox="0 0 512 512">
    <path style="fill: var(--bf-blue, rgb(45, 82, 129));" d="M 45 43 L 256 4.222 L 467 43 C 467 190.481 477.49 258.355 414.252 370.972 C 368.761 451.985 256 507 256 507 C 256 507 143.239 451.985 97.748 370.972 C 34.51 258.355 45 190.481 45 43 Z"/>
    <path style="stroke: var(--bf-color-border-gray, rgb(180, 180, 180)); stroke-width: 10px; fill: var(--bf-color-fill, rgb(255, 255, 255));" d="M 66.585 62.122 L 256 27.114 L 445.416 62.122 C 445.416 195.261 454.833 256.535 398.064 358.2 C 357.226 431.335 256 481 256 481 C 256 481 154.774 431.335 113.937 358.2 C 57.167 256.535 66.585 195.261 66.585 62.122 Z"/>
  </symbol>
  <use xlink:href="#blackFlag-armorClass"/>
</svg>