<?xml version="1.0" encoding="utf-8"?>
<svg viewBox="0 0 400 512" width="400px" height="512px" xmlns="http://www.w3.org/2000/svg" xmlns:xlink="http://www.w3.org/1999/xlink" xmlns:bx="https://boxy-svg.com">
  <defs>
    <linearGradient id="color-0" gradientUnits="userSpaceOnUse" gradientTransform="matrix(1, 0, 0, -1, 216.344604, 939.361512)" bx:pinned="true">
      <title>Lines</title>
      <stop style="stop-color: rgb(182, 164, 161)"/>
    </linearGradient>
    <linearGradient id="color-1" gradientUnits="userSpaceOnUse" bx:pinned="true">
      <title>Fill</title>
      <stop style="stop-color: rgb(18, 6, 15)"/>
    </linearGradient>
    <symbol id="symbol-0" viewBox="0 0 23 17.504" bx:pinned="true">
      <title>Top Flourish</title>
      <g transform="matrix(1, 0, 0, 1, -22, -0.4959999918937683)">
        <line style="fill: none; stroke: url('#color-0'); stroke-width: 0.5px;" x1="33.5" y1="17.696" x2="33.5" y2="0.496"/>
        <path style="fill: none; stroke: url('#color-0'); stroke-width: 0.5px;" d="M 33.5 18 L 45 12 L 33.5 7 L 22.121 11.947 L 33.5 18 Z"/>
        <polyline style="fill: none; stroke: url('#color-0'); stroke-width: 0.5px;" points="22 18 33.5 12 45 18"/>
      </g>
    </symbol>
    <filter id="drop-shadow-filter-0" color-interpolation-filters="sRGB" x="-50%" y="-50%" width="200%" height="200%" bx:preset="drop-shadow 1 0 0 0.5 0.5 rgba(236,233,199,0.62)">
      <feGaussianBlur in="SourceAlpha" stdDeviation="0.5"/>
      <feOffset dx="0" dy="0"/>
      <feComponentTransfer result="offsetblur">
        <feFuncA id="spread-ctrl" type="linear" slope="1"/>
      </feComponentTransfer>
      <feFlood flood-color="rgba(236,233,199,0.62)"/>
      <feComposite in2="offsetblur" operator="in"/>
      <feMerge>
        <feMergeNode/>
        <feMergeNode in="SourceGraphic"/>
      </feMerge>
    </filter>
    <filter id="drop-shadow-filter-1" color-interpolation-filters="sRGB" x="-50%" y="-50%" width="200%" height="200%" bx:preset="drop-shadow 1 0 5 3 0.8 rgba(0,0,0,0.3)">
      <feGaussianBlur in="SourceAlpha" stdDeviation="3"/>
      <feOffset dx="0" dy="5"/>
      <feComponentTransfer result="offsetblur">
        <feFuncA id="spread-ctrl" type="linear" slope="1.6"/>
      </feComponentTransfer>
      <feFlood flood-color="rgba(0,0,0,0.3)"/>
      <feComposite in2="offsetblur" operator="in"/>
      <feMerge>
        <feMergeNode/>
        <feMergeNode in="SourceGraphic"/>
      </feMerge>
    </filter>
  </defs>
  <path d="M 399 450 L 200 495 L 0 450 L 0 0 L 400 0 L 400 450 L 399 450 Z M 22 12 L 6 12 L 6 400 L 394 400 L 394 12 L 378 12 L 378 18 L 355 18 L 355 12 L 333.5 12 L 333.5 18 L 310.5 18 L 310.5 12 L 289 12 L 289 18 L 265.989 18 L 265.989 12 L 244.5 12 L 244.5 18 L 221.5 18 L 221.5 12 L 178.5 12 L 178.5 18 L 155.5 18 L 155.5 12 L 134 12 L 134 18 L 111 18 L 111 12 L 89.5 12 L 89.5 18 L 66.5 18 L 66.5 12 L 45 12 L 45 18 L 22 18 L 22 12 Z" style="fill: rgb(18, 6, 15); filter: url('#drop-shadow-filter-1');">
    <title>Base Color</title>
  </path>
  <g style="filter: url('#drop-shadow-filter-0');">
    <title>Lines</title>
    <path d="M 399 450.037 L 200 495.037 L 0.5 450 L 0.5 0.5 L 399.5 0.5 L 399.5 450 L 399 450.037 Z M 22 12.037 L 6 12.037 L 6 400 L 394 400 L 394 12.037 L 378 12.037 L 378 18.037 L 355 18.037 L 355 12.037 L 333.5 12.037 L 333.5 18.037 L 310.5 18.037 L 310.5 12.037 L 289 12.037 L 289 18.037 L 265.989 18.037 L 265.989 12.037 L 244.5 12.037 L 244.5 18.037 L 221.5 18.037 L 221.5 12.037 L 178.5 12.037 L 178.5 18.037 L 155.5 18.037 L 155.5 12.037 L 134 12.037 L 134 18.037 L 111 18.037 L 111 12.037 L 89.5 12.037 L 89.5 18.037 L 66.5 18.037 L 66.5 12.037 L 45 12.037 L 45 18.037 L 22 18.037 L 22 12.037 Z" style="stroke: url('#color-0'); fill: none; filter: none;">
      <title>Outline</title>
    </path>
    <g>
      <title>Top Flourishes</title>
      <use width="23" height="17.503999710083008" transform="matrix(1, 0, 0, 1, 22, 0.49600112438201904)" xlink:href="#symbol-0"/>
      <use width="23" height="17.503999710083008" transform="matrix(1, 0, 0, 1, 66.5, 0.49600112438201904)" xlink:href="#symbol-0"/>
      <use width="23" height="17.503999710083008" transform="matrix(1, 0, 0, 1, 111, 0.49600011110305786)" xlink:href="#symbol-0"/>
      <use width="23" height="17.503999710083008" transform="matrix(1, 0, 0, 1, 155.5, 0.49600011110305786)" xlink:href="#symbol-0"/>
      <use width="23" height="17.503999710083008" transform="matrix(1, 0, 0, 1, 221.5, 0.49600011110305786)" xlink:href="#symbol-0"/>
      <use width="23" height="17.503999710083008" transform="matrix(1, 0, 0, 1, 266, 0.49600011110305786)" xlink:href="#symbol-0"/>
      <use width="23" height="17.503999710083008" transform="matrix(1, 0, 0, 1, 310.5, 0.49600011110305786)" xlink:href="#symbol-0"/>
      <use width="23" height="17.503999710083008" transform="matrix(1, 0, 0, 1, 355, 0.49600011110305786)" xlink:href="#symbol-0"/>
    </g>
    <polyline style="fill: none; stroke: url('#color-0');" points="1 12 6 12 6 1"/>
    <polyline style="stroke: url('#color-0'); fill: none;" points="394 0.967 394 12 399 12"/>
    <polygon style="fill: none; stroke: url('#color-0');" points="399.5 443 200 488 0.5 443 0.5 439 200 484 399.5 439"/>
    <polyline style="fill: none; stroke: url('#color-0');" points="6 434 200 478 394 434"/>
    <polyline style="stroke: url('#color-0'); fill: none;" points="394 400 394 434 399 434"/>
    <polyline style="stroke: url('#color-0'); fill: none;" points="6 400 6 434 0.9800000190734863 434"/>
    <line style="fill: none; stroke: url('#color-0');" x1="195.883" y1="487.05" x2="195.835" y2="493.528"/>
    <line style="fill: none; stroke: url('#color-0');" x1="204.237" y1="487.325" x2="204.189" y2="493.803"/>
    <polyline style="fill: none; stroke: url('#color-0'); stroke-width: 0.75px;" points="0.5 449.9 16.48200035095215 446.3909912109375 27.86400032043457 456.08099365234375 48.444000244140625 453.9179992675781 59.696998596191406 462.8689880371094 84.23100280761719 461.8380126953125 99.88300323486328 472.3320007324219 120.13700103759766 470.02301025390625 132.35400390625 479.59698486328125 150.39100646972656 476.7049865722656 162.9340057373047 486.6099853515625 178.5570068359375 483.4419860839844 192.06199645996094 493.09100341796875"/>
    <polyline style="fill: none; stroke: url('#color-0'); stroke-width: 0.75px; transform-box: fill-box; transform-origin: 50% 50%;" points="207.035 489.744 223.496 493.222 234.878 483.532 255.458 485.695 266.712 476.744 291.245 477.775 306.897 467.281 327.152 469.59 339.368 460.016 357.406 462.908 369.948 453.003 385.572 456.171 399.077 446.522" transform="matrix(-1, 0, 0, -1, -0.000003, -0.000035)"/>
  </g>
</svg>