<svg viewBox="0 0 512 148" width="512px" height="148px" xmlns="http://www.w3.org/2000/svg" xmlns:xlink="http://www.w3.org/1999/xlink" xmlns:bx="https://boxy-svg.com">
  <symbol id="blackFlag-deathSaves" viewbox="0 0 512 148">
    <defs>
      <radialGradient gradientUnits="userSpaceOnUse" cx="256" cy="64" r="60" id="blackFlag-deathSaves-gradient-center" gradientTransform="matrix(1, 0, 0, 1, 0.000005, 0.000002)">
        <stop offset="0" style=""/>
        <stop offset="1" style="stop-color: rgb(75, 66, 119);"/>
      </radialGradient>
      <linearGradient id="blackFlag-deathSaves-gradient-failure" bx:pinned="true">
        <stop offset="0" style="stop-color: rgb(114, 28, 28);"/>
        <stop offset="0.818" style="stop-color: rgb(200, 27, 27);"/>
      </linearGradient>
      <linearGradient id="blackFlag-deathSaves-gradient-success">
        <stop offset="0" style="stop-color: rgb(15, 127, 30);"/>
        <stop offset="0.818" style="stop-color: rgb(29, 190, 50);"/>
      </linearGradient>
      <radialGradient id="blackFlag-deathSaves-gradient-failure-1" gradientUnits="userSpaceOnUse" cx="197.5" cy="64" r="57.5" xlink:href="#blackFlag-deathSaves-gradient-failure"/>
      <radialGradient id="blackFlag-deathSaves-gradient-failure-2" gradientUnits="userSpaceOnUse" cx="137.5" cy="64" r="57.5" xlink:href="#blackFlag-deathSaves-gradient-failure"/>
      <radialGradient id="blackFlag-deathSaves-gradient-failure-3" gradientUnits="userSpaceOnUse" cx="81.5" cy="64" r="57.5" xlink:href="#blackFlag-deathSaves-gradient-failure"/>
      <radialGradient id="blackFlag-deathSaves-gradient-success-1" gradientUnits="userSpaceOnUse" cx="313.5" cy="64" r="57.5" xlink:href="#blackFlag-deathSaves-gradient-success"/>
      <radialGradient id="blackFlag-deathSaves-gradient-success-2" gradientUnits="userSpaceOnUse" cx="369.5" cy="64" r="57.5" xlink:href="#blackFlag-deathSaves-gradient-success"/>
      <radialGradient id="blackFlag-deathSaves-gradient-success-3" gradientUnits="userSpaceOnUse" cx="429.5" cy="64" r="57.5" xlink:href="#blackFlag-deathSaves-gradient-success"/>
      <filter id="blackFlag-deathSaves-dropShadow-center" color-interpolation-filters="sRGB" x="-50%" y="-50%" width="200%" height="200%" bx:preset="drop-shadow 1 0 0 5 1 rgba(0,0,0,0.3)">
        <feGaussianBlur in="SourceAlpha" stdDeviation="5"/>
        <feOffset dx="0" dy="0"/>
        <feComponentTransfer result="offsetblur">
          <feFuncA id="spread-ctrl" type="linear" slope="2"/>
        </feComponentTransfer>
        <feFlood flood-color="rgba(0,0,0,0.3)"/>
        <feComposite in2="offsetblur" operator="in"/>
        <feMerge>
          <feMergeNode/>
          <feMergeNode in="SourceGraphic"/>
        </feMerge>
      </filter>
      <filter id="blackFlag-deathSaves-dropShadow-left" color-interpolation-filters="sRGB" x="-50%" y="-50%" width="200%" height="200%" bx:preset="drop-shadow 1 -5 0 5 0.5 rgba(0,0,0,0.3)">
        <feGaussianBlur in="SourceAlpha" stdDeviation="5"/>
        <feOffset dx="-5" dy="0"/>
        <feComponentTransfer result="offsetblur">
          <feFuncA id="spread-ctrl" type="linear" slope="1"/>
        </feComponentTransfer>
        <feFlood flood-color="rgba(0,0,0,0.3)"/>
        <feComposite in2="offsetblur" operator="in"/>
        <feMerge>
          <feMergeNode/>
          <feMergeNode in="SourceGraphic"/>
        </feMerge>
      </filter>
      <filter id="blackFlag-deathSaves-dropShadow-right" color-interpolation-filters="sRGB" x="-50%" y="-50%" width="200%" height="200%" bx:preset="drop-shadow 1 -5 0 5 0.5 rgba(0,0,0,0.3)">
        <feGaussianBlur in="SourceAlpha" stdDeviation="5"/>
        <feOffset dx="5" dy="0"/>
        <feComponentTransfer result="offsetblur">
          <feFuncA id="spread-ctrl" type="linear" slope="1"/>
        </feComponentTransfer>
        <feFlood flood-color="rgba(0,0,0,0.3)"/>
        <feComposite in2="offsetblur" operator="in"/>
        <feMerge>
          <feMergeNode/>
          <feMergeNode in="SourceGraphic"/>
        </feMerge>
      </filter>
      <filter id="filter-1" color-interpolation-filters="sRGB" x="-50%" y="-50%" width="200%" height="200%" bx:preset="drop-shadow 1 5 0 5 0.5 rgba(0,0,0,0.3)">
        <feGaussianBlur in="SourceAlpha" stdDeviation="5"/>
        <feOffset dx="5" dy="0"/>
        <feComponentTransfer result="offsetblur">
          <feFuncA id="feFuncA-1" type="linear" slope="1"/>
        </feComponentTransfer>
        <feFlood flood-color="rgba(0,0,0,0.3)"/>
        <feComposite in2="offsetblur" operator="in"/>
        <feMerge>
          <feMergeNode/>
          <feMergeNode in="SourceGraphic"/>
        </feMerge>
      </filter>
      <filter id="filter-2" color-interpolation-filters="sRGB" x="-50%" y="-50%" width="200%" height="200%" bx:preset="drop-shadow 1 5 0 5 0.5 rgba(0,0,0,0.3)">
        <feGaussianBlur in="SourceAlpha" stdDeviation="5"/>
        <feOffset dx="5" dy="0"/>
        <feComponentTransfer result="offsetblur">
          <feFuncA id="feFuncA-1" type="linear" slope="1"/>
        </feComponentTransfer>
        <feFlood flood-color="rgba(0,0,0,0.3)"/>
        <feComposite in2="offsetblur" operator="in"/>
        <feMerge>
          <feMergeNode/>
          <feMergeNode in="SourceGraphic"/>
        </feMerge>
      </filter>
    </defs>
    <g>
      <rect class="failure-3" x="24" y="34" width="115" height="80" rx="32" ry="32" style="stroke: rgb(0, 0, 0); fill: var(--failure-3-fill, var(--bf-color-fill)); filter: none; stroke-width: 4px;"/>
      <rect class="failure-2" x="80" y="34" width="115" height="80" rx="32" ry="32" style="stroke: rgb(0, 0, 0); fill: var(--failure-2-fill, var(--bf-color-fill)); filter: url('#blackFlag-deathSaves-dropShadow-left'); stroke-width: 4px;"/>
      <rect class="failure-1" x="140" y="34" width="115" height="80" rx="32" ry="32" style="stroke: rgb(0, 0, 0); fill: var(--failure-1-fill, var(--bf-color-fill)); filter: url('#blackFlag-deathSaves-dropShadow-left'); stroke-width: 4px;"/>
    </g>
    <g>
      <rect class="success-3" x="372" y="34" width="115" height="80" rx="32" ry="32" style="stroke: rgb(0, 0, 0); fill: var(--success-3-fill, var(--bf-color-fill)); filter: none; stroke-width: 4px;"/>
      <rect class="success-2" x="312" y="34" width="115" height="80" rx="32" ry="32" style="stroke: rgb(0, 0, 0); fill: var(--success-2-fill, var(--bf-color-fill)); filter: url('#blackFlag-deathSaves-dropShadow-right'); stroke-width: 4px;"/>
      <rect class="success-1" x="256" y="34" width="115" height="80" rx="32" ry="32" style="stroke: rgb(0, 0, 0); fill: var(--success-1-fill, var(--bf-color-fill)); filter: url('#blackFlag-deathSaves-dropShadow-right'); stroke-width: 4px;"/>
    </g>
    <rect x="24" y="34" width="464" height="80" rx="32" ry="37" style="stroke: rgb(0, 0, 0); fill: none; stroke-width: 2px; filter: url('#blackFlag-deathSaves-dropShadow-center');"/>
    <g style="filter: url('#blackFlag-deathSaves-dropShadow-center'); transform: translate(0px, 10px);">
      <ellipse style="stroke: rgb(0, 0, 0); fill: url('#blackFlag-deathSaves-gradient-center'); stroke-width: 4px;" cx="256" cy="64" rx="60" ry="60"/>
      <path d="M 258.836 19 L 258.836 92.251 C 262.849 92.032 266.363 91.213 269.079 89.895 C 272.233 88.358 274.31 86.241 275.268 83.506 L 278.842 84.724 C 277.524 88.538 274.589 91.453 270.736 93.289 C 267.381 94.947 263.308 95.845 258.836 96.025 L 258.836 108.983 C 267.601 108.364 275.567 103.612 281.537 96.025 C 287.906 87.899 291.92 76.558 291.92 63.999 C 291.92 51.441 287.906 40.1 281.537 31.966 C 275.567 24.373 267.601 19.603 258.836 19 L 258.836 19 Z M 255.042 19.19 C 223.279 20.593 220.05 57.49 220.05 67.354 C 220.05 74.062 229.486 71.067 230.105 77.417 L 233.459 105.489 C 233.459 108.544 248.074 109.222 255.042 108.943 L 255.042 100.877 L 251.708 100.877 L 251.708 96.065 L 248.753 96.065 L 248.753 100.877 L 244.98 100.877 L 244.98 96.065 L 242.065 96.065 L 242.065 100.877 L 238.291 100.877 L 238.291 96.065 L 234.737 96.065 L 234.737 92.291 L 238.291 92.291 L 238.291 87.479 L 242.065 87.479 L 242.065 92.291 L 244.98 92.291 L 244.98 87.479 L 248.753 87.479 L 248.753 92.291 L 251.708 92.291 L 251.708 87.479 L 255.042 87.479 L 255.042 81.23 L 246.876 83.287 L 255.042 70.329 L 255.042 19.19 Z M 240.248 58.149 C 245.399 58.149 250.63 58.968 251.069 60.645 C 252.786 67.114 251.948 72.185 247.715 74.062 C 235.056 79.613 230.105 70.708 230.105 60.645 C 230.105 58.968 235.136 58.149 240.248 58.149 L 240.248 58.149 Z M 272.014 58.748 C 275.827 58.748 278.942 61.883 278.942 65.677 C 278.942 69.47 275.827 72.585 272.014 72.585 C 268.24 72.585 265.105 69.47 265.105 65.677 C 265.105 61.883 268.24 58.748 272.014 58.748 Z M 272.014 62.542 C 270.276 62.542 268.879 63.92 268.879 65.677 C 268.879 67.434 270.276 68.831 272.014 68.831 C 273.79 68.831 275.168 67.434 275.168 65.677 C 275.168 63.92 273.79 62.542 272.014 62.542 Z" fill="#fff" fill-opacity="1"/>
    </g>
  </symbol>
  <use xlink:href="#blackFlag-deathSaves"/>
</svg>