<?xml version="1.0" encoding="utf-8"?>
<svg viewBox="0 0 148 148" width="148px" height="148px" xmlns="http://www.w3.org/2000/svg">
  <path d="M 77.111 4.41 L 77.111 116.046 C 83.227 115.713 88.583 114.465 92.721 112.456 C 97.528 110.114 100.693 106.887 102.153 102.718 L 107.601 104.575 C 105.592 110.387 101.118 114.83 95.247 117.628 C 90.134 120.155 83.926 121.524 77.111 121.798 L 77.111 141.546 C 90.469 140.603 102.61 133.361 111.708 121.798 C 121.414 109.413 127.532 92.13 127.532 72.989 C 127.532 53.851 121.414 36.567 111.708 24.171 C 102.61 12.599 90.469 5.329 77.111 4.41 Z M 71.329 4.699 C 22.921 6.837 18 63.07 18 78.103 C 18 88.326 32.381 83.761 33.324 93.439 L 38.435 136.221 C 38.435 140.878 60.709 141.91 71.329 141.485 L 71.329 129.193 L 66.248 129.193 L 66.248 121.859 L 61.744 121.859 L 61.744 129.193 L 55.993 129.193 L 55.993 121.859 L 51.552 121.859 L 51.552 129.193 L 45.799 129.193 L 45.799 121.859 L 40.384 121.859 L 40.384 116.108 L 45.799 116.108 L 45.799 108.774 L 51.552 108.774 L 51.552 116.108 L 55.993 116.108 L 55.993 108.774 L 61.744 108.774 L 61.744 116.108 L 66.248 116.108 L 66.248 108.774 L 71.329 108.774 L 71.329 99.25 L 58.884 102.385 L 71.329 82.637 L 71.329 4.699 Z M 48.782 64.074 C 56.632 64.074 64.605 65.322 65.274 67.878 C 67.89 77.737 66.614 85.465 60.162 88.326 C 40.869 96.785 33.324 83.215 33.324 67.878 C 33.324 65.322 40.991 64.074 48.782 64.074 Z M 97.194 64.986 C 103.006 64.986 107.753 69.765 107.753 75.547 C 107.753 81.327 103.006 86.075 97.194 86.075 C 91.443 86.075 86.665 81.327 86.665 75.547 C 86.665 69.765 91.443 64.986 97.194 64.986 Z M 97.194 70.769 C 94.546 70.769 92.417 72.869 92.417 75.547 C 92.417 78.224 94.546 80.353 97.194 80.353 C 99.901 80.353 102.001 78.224 102.001 75.547 C 102.001 72.869 99.901 70.769 97.194 70.769 Z" fill="var(--icon-fill, #fff)"/>
</svg>
