<?xml version="1.0" encoding="utf-8"?>
<svg viewBox="0 0 160 200" width="160px" height="200px" xmlns="http://www.w3.org/2000/svg" xmlns:xlink="http://www.w3.org/1999/xlink" xmlns:bx="https://boxy-svg.com">
  <defs>
    <linearGradient id="color-0" gradientUnits="userSpaceOnUse" gradientTransform="matrix(1.004429, 0, 0, -1.00445, 80.55822, 1719.437539)" bx:pinned="true">
      <title>Lines</title>
      <stop style="stop-color: rgb(182, 164, 161)"/>
    </linearGradient>
    <linearGradient id="color-1" gradientUnits="userSpaceOnUse" bx:pinned="true">
      <title>Fill</title>
      <stop style="stop-color: rgb(18, 6, 15)"/>
    </linearGradient>
    <symbol id="symbol-0" viewBox="0 0 23 17.504" bx:pinned="true">
      <title>Top Flourish</title>
      <g transform="matrix(1, 0, 0, 1, -22, -0.4959999918937683)">
        <line style="fill: none; stroke: url('#color-0');" x1="33.5" y1="17.696" x2="33.5" y2="0.496"/>
        <path style="fill: none; stroke: url('#color-0');" d="M 33.5 18 L 45 12 L 33.5 7 L 22.121 11.947 L 33.5 18 Z"/>
        <polyline style="fill: none; stroke: url('#color-0');" points="22 18 33.5 12 45 18"/>
      </g>
    </symbol>
    <filter id="drop-shadow-filter-0" color-interpolation-filters="sRGB" x="-50%" y="-50%" width="200%" height="200%" bx:preset="drop-shadow 1 0 0 0.25 0.5 rgba(236,233,199,0.62)">
      <feGaussianBlur in="SourceAlpha" stdDeviation="0.25"/>
      <feOffset dx="0" dy="0"/>
      <feComponentTransfer result="offsetblur">
        <feFuncA id="spread-ctrl" type="linear" slope="1"/>
      </feComponentTransfer>
      <feFlood flood-color="rgba(236,233,199,0.62)"/>
      <feComposite in2="offsetblur" operator="in"/>
      <feMerge>
        <feMergeNode/>
        <feMergeNode in="SourceGraphic"/>
      </feMerge>
    </filter>
    <filter id="filter-1" color-interpolation-filters="sRGB" x="-50%" y="-50%" width="200%" height="200%" bx:preset="drop-shadow 1 2 0 2 0.8 rgba(0,0,0,0.3)">
      <feGaussianBlur in="SourceAlpha" stdDeviation="2"/>
      <feOffset dx="2" dy="0"/>
      <feComponentTransfer result="offsetblur">
        <feFuncA id="feFuncA-1" type="linear" slope="1.6"/>
      </feComponentTransfer>
      <feFlood flood-color="rgba(0,0,0,0.3)"/>
      <feComposite in2="offsetblur" operator="in"/>
      <feMerge>
        <feMergeNode/>
        <feMergeNode in="SourceGraphic"/>
      </feMerge>
    </filter>
  </defs>
  <path d="M 143.25 141.75 L 143.25 133.125 L 145.5 133.125 L 145.5 125.063 L 143.25 125.063 L 143.25 116.438 L 145.5 116.438 L 145.5 108.375 L 143.25 108.375 L 143.25 99.746 L 145.5 99.746 L 145.5 91.688 L 143.25 91.688 L 143.25 83.063 L 145.5 83.063 L 145.5 66.938 L 143.25 66.938 L 143.25 58.313 L 145.5 58.313 L 145.5 50.25 L 143.25 50.25 L 143.25 41.625 L 145.5 41.625 L 145.5 33.563 L 143.25 33.563 L 143.25 24.938 L 145.5 24.938 L 145.5 16.875 L 143.25 16.875 L 143.25 8.25 L 145.5 8.25 L 145.5 2.25 L 4.5 2.25 L 4.5 8.25 L 6.75 8.25 L 6.75 16.875 L 4.5 16.875 L 4.5 24.938 L 6.75 24.938 L 6.75 33.563 L 4.5 33.563 L 4.5 41.625 L 6.75 41.625 L 6.75 50.254 L 4.5 50.254 L 4.5 58.313 L 6.75 58.313 L 6.75 66.938 L 4.5 66.938 L 4.5 83.063 L 6.75 83.063 L 6.75 91.688 L 4.5 91.688 L 4.5 99.75 L 6.75 99.75 L 6.75 108.375 L 4.5 108.375 L 4.5 116.438 L 6.75 116.438 L 6.75 125.063 L 4.5 125.063 L 4.5 133.125 L 6.75 133.125 L 6.75 141.75 L 4.5 141.75 L 4.5 147.75 L 145.5 147.75 L 145.5 141.75 L 143.25 141.75 Z M 0 200 L 0 0 L 150 0 L 150 200 L 0 200 Z" style="fill: rgb(18, 6, 15); filter: url('#filter-1');"/>
  <g style="filter: url('#drop-shadow-filter-0'); transform-origin: 200px 247.766px;" transform="matrix(0, -0.373433, 0.373442, 0, -107.041824, -172.835205)">
    <title>Lines</title>
    <path d="M 399.77 400.493 L -135.022 400.493 L -134.194 -0.284 L 399.769 -0.284 L 399.77 400.493 Z M 20.597 11.304 L 4.526 11.304 L 4.526 388.859 L 20.598 388.941 L 20.598 382.915 L 43.7 382.915 L 43.7 388.941 L 65.295 388.941 L 65.295 382.915 L 88.397 382.915 L 88.397 388.941 L 109.992 388.941 L 109.992 382.915 L 133.094 382.915 L 133.094 388.941 L 154.689 388.941 L 154.689 382.915 L 177.791 382.915 L 177.791 388.941 L 220.982 388.941 L 220.982 382.915 L 244.084 382.915 L 244.084 388.941 L 265.679 388.941 L 265.679 382.915 L 288.781 382.915 L 288.781 388.941 L 310.376 388.941 L 310.376 382.915 L 333.478 382.915 L 333.478 388.941 L 355.073 388.941 L 355.073 382.915 L 378.175 382.915 L 378.175 388.941 L 394.245 389.419 L 394.245 11.304 L 378.174 11.304 L 378.174 17.331 L 355.072 17.331 L 355.072 11.304 L 333.477 11.304 L 333.477 17.331 L 310.375 17.331 L 310.375 11.304 L 288.78 11.304 L 288.78 17.331 L 265.667 17.331 L 265.667 11.304 L 244.083 11.304 L 244.083 17.331 L 220.981 17.331 L 220.981 11.304 L 177.79 11.304 L 177.79 17.331 L 154.688 17.331 L 154.688 11.304 L 133.093 11.304 L 133.093 17.331 L 109.991 17.331 L 109.991 11.304 L 88.396 11.304 L 88.396 17.331 L 65.294 17.331 L 65.294 11.304 L 43.699 11.304 L 43.699 17.331 L 20.597 17.331 L 20.597 11.304 Z" style="stroke: url('#color-0'); fill: none; filter: none; stroke-width: 1.7674px;">
      <title>Outline</title>
    </path>
    <g transform="matrix(1, 0, 0, 1, -0.759084, -0.325005)" style="">
      <title>Left Flourishes</title>
      <use width="23" height="17.503999710083008" transform="matrix(1, 0, 0, 1, 22.000328, 0.225139)" xlink:href="#symbol-0"/>
      <use width="23" height="17.503999710083008" transform="matrix(1, 0, 0, 1, 66.500984, 0.066097)" xlink:href="#symbol-0"/>
      <use width="23" height="17.503999710083008" transform="matrix(1, 0, 0, 1, 111.077713, 0.029041)" xlink:href="#symbol-0"/>
      <use width="23" height="17.503999710083008" transform="matrix(1, 0, 0, 1, 155.597061, 0.031337)" xlink:href="#symbol-0"/>
      <use width="23" height="17.503999710083008" transform="matrix(1, 0, 0, 1, 221.772171, -0.027689)" xlink:href="#symbol-0"/>
      <use width="23" height="17.503999710083008" transform="matrix(1, 0, 0, 1, 266.504333, -0.00703)" xlink:href="#symbol-0"/>
      <use width="23" height="17.503999710083008" transform="matrix(1, 0, 0, 1, 311.236481, -0.126721)" xlink:href="#symbol-0"/>
      <use width="23" height="17.503999710083008" transform="matrix(1, 0, 0, 1, 355.367584, -0.104095)" xlink:href="#symbol-0"/>
    </g>
    <polyline style="fill: none; stroke: url('#color-0'); stroke-width: 1.7674px;" points="-134.328 11.197 4.206 11.197 4.206 0.197"/>
    <polyline style="stroke: url('#color-0'); fill: none; stroke-width: 1.7674px;" points="394.014 0.109 394.014 11.142 399.014 11.142"/>
    <g transform="matrix(-1, 0, 0, -1, -0.460795, 382.473083)" style="transform-origin: 200px 9.248px;">
      <title>Right Flourishes</title>
      <use width="23" height="17.503999710083008" transform="matrix(1, 0, 0, 1, 21.883919, 0.34483)" xlink:href="#symbol-0"/>
      <use width="23" height="17.503999710083008" transform="matrix(1, 0, 0, 1, 66.399658, 0.516004)" xlink:href="#symbol-0"/>
      <use width="23" height="17.503999710083008" transform="matrix(1, 0, 0, 1, 110.883919, 0.362864)" xlink:href="#symbol-0"/>
      <use width="23" height="17.503999710083008" transform="matrix(1, 0, 0, 1, 155.5, 0.49600011110305786)" xlink:href="#symbol-0"/>
      <use width="23" height="17.503999710083008" transform="matrix(1, 0, 0, 1, 221.479996, 0.499935)" xlink:href="#symbol-0"/>
      <use width="23" height="17.503999710083008" transform="matrix(1, 0, 0, 1, 266.303986, 0.36516)" xlink:href="#symbol-0"/>
      <use width="23" height="17.503999710083008" transform="matrix(1, 0, 0, 1, 310.652161, 0.287443)" xlink:href="#symbol-0"/>
      <use width="23" height="17.503999710083008" transform="matrix(1, 0, 0, 1, 355.999146, 0.432056)" xlink:href="#symbol-0"/>
    </g>
    <polyline style="fill: none; stroke: url('#color-0'); stroke-width: 1.7674px; transform-box: fill-box; transform-origin: 50% 50%;" points="394.285 400.38 399.285 400.38 399.285 389.38" transform="matrix(-1, 0, 0, -1, 0.000001, 0.000001)"/>
    <polyline style="stroke: url('#color-0'); fill: none; stroke-width: 1.7674px; transform-box: fill-box; transform-origin: 50% 50%;" points="-134.528 389.272 -134.528 400.305 4.331 400.475" transform="matrix(-1, 0, 0, -1, -0.000023, -0.000007)"/>
  </g>
</svg>