<?xml version="1.0" encoding="utf-8"?>
<svg style="height: 512px; width: 512px;" width="512" height="512" viewBox="0 0 512 512" xmlns="http://www.w3.org/2000/svg">
  <path d="M 450.169 181.354 L 379.685 84.29 L 265.629 47.325 L 265.629 139.977 L 362.013 210.008 L 450.169 181.354 Z M 246.55 139.977 L 246.55 47.325 L 132.494 84.29 L 62.01 181.354 L 150.166 209.972 L 246.55 139.977 Z M 198.59 333.591 L 313.588 333.591 L 349.098 224.221 L 256.089 156.623 L 163.08 224.222 L 198.59 333.591 Z M 196.468 352.67 L 142.034 427.71 L 256.089 464.675 L 370.145 427.71 L 315.711 352.67 L 196.468 352.67 Z M 367.843 228.109 L 331.033 341.389 L 385.516 416.382 L 456 319.366 L 456 199.503 L 367.843 228.109 Z M 144.156 228.109 L 56 199.491 L 56 319.425 L 126.484 416.441 L 180.966 341.449 L 144.156 228.109 Z" fill="#000000" fill-opacity="1"/>
</svg>