<svg style="height: 512px; width: 512px;" width="512" height="512" viewBox="0 0 512 512" xmlns="http://www.w3.org/2000/svg">
  <symbol id="blackFlag-d20" viewbox="0 0 512 512">
    <path d="M 248 20.3 L 72 132.6 L 248 128.8 L 248 20.3 Z M 264 20.3 L 264 128.8 L 439.7 132.6 L 264 20.3 Z M 242 144.9 L 55 149 L 127 341.9 L 242 144.9 Z M 270 144.9 L 385.4 341.9 L 456.6 149 L 270 144.9 Z M 256 152.4 L 139 352.6 L 373.1 352.6 L 256 152.4 Z M 52 186 L 52 359.2 L 114 353.5 L 52 186 Z M 460 186 L 398.1 353.5 L 460 359.2 L 460 186 Z M 143 368.6 L 256 491.7 L 368.8 368.6 L 143 368.6 Z M 122 368.9 L 68 373.8 L 209 463.9 L 122 368.9 Z M 390.2 368.9 L 303.2 463.9 L 444 373.8 L 390.2 368.9 Z"/>
  </symbol>
</svg>