<svg style="height: 512px; width: 512px;" width="512" height="512" viewBox="0 0 512 512" xmlns="http://www.w3.org/2000/svg">
  <symbol id="blackFlag-d6" viewbox="0 0 512 512">
    <path d="M 255.76 44.764 C 249.584 44.764 243.407 46.148 238.623 48.916 L 85.87 137.276 C 76.3 142.812 76.3 151.566 85.87 157.102 L 238.623 245.462 C 248.193 250.998 263.326 250.998 272.895 245.462 L 425.648 157.102 C 435.218 151.567 435.218 142.812 425.648 137.277 L 272.895 48.917 C 268.11 46.147 261.935 44.764 255.76 44.764 Z M 75.67 173.84 C 69.917 173.685 66.006 178.176 66.006 186.12 L 66.006 343.816 C 66.006 354.868 73.576 367.979 83.146 373.506 L 230.076 458.354 C 239.646 463.88 247.216 459.51 247.216 448.459 L 247.216 290.76 C 247.216 279.708 239.646 266.6 230.076 261.072 L 83.146 176.225 C 80.456 174.67 77.921 173.898 75.67 173.838 L 75.67 173.84 Z M 436.443 173.842 C 434.193 173.902 431.66 174.672 428.969 176.227 L 282.034 261.074 C 272.464 266.601 264.894 279.712 264.894 290.764 L 264.894 448.464 C 264.894 459.514 272.464 463.882 282.034 458.354 L 428.97 373.51 C 438.54 367.983 446.107 354.874 446.107 343.822 L 446.107 186.122 C 446.107 178.18 442.197 173.69 436.443 173.844 L 436.443 173.842 Z"/>
  </symbol>
</svg>