<?xml version="1.0" encoding="utf-8"?>
<svg viewBox="0 0 512 512" x="0px" y="0px" width="512px" height="512px" xmlns="http://www.w3.org/2000/svg">
  <path d="M 194.117 290.987 L 401.056 84.048 C 405.754 86.658 410.942 88.275 416.304 88.819 C 416.804 94.403 418.344 99.837 420.869 104.827 L 214.413 311.283 L 214.42 295.884 C 214.382 293.185 212.215 291.018 209.516 290.98 L 194.117 290.987 Z M 425.968 84.072 C 425.986 81.331 423.777 79.122 421.036 79.14 C 419.356 79.168 396.654 74.127 389.282 70.705 C 385.196 70.624 418.806 46.21 430.374 43.214 L 466.687 38.449 L 460.353 73.192 C 457.718 84.773 435.243 120.293 434.456 116.648 C 432.744 108.775 425.676 90.643 425.968 84.072 Z M 197.494 300.96 L 173.265 325.189 L 136.143 324.859 L 159.574 301.428 L 197.494 300.96 Z M 121.81 478.236 L 125.227 387.119 L 170.38 341.966 L 171.206 428.84 L 121.81 478.236 Z M 118.281 380.173 L 27.157 383.583 L 76.525 334.215 L 163.434 335.02 L 118.281 380.173 Z M 180.211 332.135 L 204.44 307.906 L 203.972 345.826 L 180.541 369.257 L 180.211 332.135 Z" style="fill: var(--icon-fill, #fff);"/>
</svg>
