<?xml version="1.0" encoding="utf-8"?>
<svg viewBox="0 0 512 512" x="0px" y="0px" width="512px" height="512px" xmlns="http://www.w3.org/2000/svg">
  <path d="M 437.67 73.48 C 470.39 72.13 496.31 97.06 496.88 127.17 C 499 240.2 473.56 342.54 393.38 422.39 C 363.08 452.57 325.47 478.72 281.58 500.12 C 265.56 507.94 246.43 507.94 230.42 500.12 C 186.54 478.72 148.93 452.57 118.63 422.4 C 38.47 342.57 13.01 240.25 15.12 127.2 C 15.69 97.1 41.74 72.23 74.34 73.51 C 133.64 75.8 186.23 44.78 219.91 18.33 C 240.81 1.92 271.12 1.95 292 18.41 C 325.55 44.87 378.06 75.89 437.67 73.48 Z M 262 18.41 L 262 75.92 C 266.48 76.77 270.8 78.53 274.59 81.26 C 294.38 95.45 346.86 128.9 406.76 132.86 C 413.38 133.3 419.39 135.7 424.2 139.45 L 466.25 93.41 C 458.16 87.85 448.4 85.05 438.15 85.47 C 374.87 88.03 319.71 55.54 284.57 27.83 C 277.93 22.6 270.08 19.46 262 18.41 Z M 45.81 93.49 L 87.79 139.44 C 92.6 135.7 98.58 133.29 105.19 132.85 C 164.86 128.81 217.39 95.4 237.21 81.23 C 241.06 78.47 245.45 76.7 250 75.88 L 250 18.39 C 241.88 19.4 234 22.53 227.32 27.77 C 193.33 54.47 140.75 85.63 80.62 85.63 C 76.01 85.63 73.8 85.47 71.96 85.47 C 62.44 85.47 53.4 88.26 45.81 93.49 Z M 250 493.59 L 250 438.96 C 246.89 438.37 243.85 437.34 240.98 435.85 C 128.89 377.6 79.1 289.58 76.1 163.85 C 75.96 158.33 77.35 153.12 79.9 148.59 L 36.92 101.54 C 30.75 108.88 27.3 117.9 27.12 127.42 C 25.05 238.11 44.41 396.05 235.68 489.34 C 240.21 491.55 245.06 492.96 250 493.59 Z M 144.65 343 L 367.35 343 C 406.44 292.53 418.85 237.21 422.58 190 L 89.41 190 C 93.14 237.21 105.56 292.53 144.65 343 Z M 484.88 127.39 C 484.7 117.84 481.26 108.81 475.13 101.49 L 432.1 148.59 C 434.65 153.12 436.04 158.34 435.91 163.87 C 432.88 289.64 383.06 377.63 271.02 435.85 C 268.15 437.34 265.11 438.37 262 438.96 L 262 493.59 C 266.94 492.96 271.79 491.55 276.32 489.34 C 467.6 396.04 486.96 238.09 484.88 127.39 Z M 297.54 238.89 C 311.73 242.43 317.29 259.6 307.9 270.79 L 297.97 282.63 C 297.53 283.15 297.32 283.81 297.37 284.49 L 298.44 299.9 C 299.46 314.5 284.84 325.09 271.31 319.62 L 256.97 313.83 C 256.35 313.58 255.65 313.58 255.03 313.83 L 240.69 319.62 C 227.13 325.1 212.54 314.47 213.56 299.9 L 214.63 284.49 C 214.68 283.81 214.47 283.15 214.03 282.63 L 204.1 270.79 C 194.7 259.58 200.3 242.42 214.46 238.89 L 229.46 235.15 C 230.12 234.98 230.68 234.58 231.04 234 L 239.23 220.9 C 246.97 208.52 265.02 208.49 272.77 220.9 L 280.96 234 C 281.32 234.58 281.88 234.98 282.54 235.15 Z" style="fill: var(--icon-fill, #fff);"/>
</svg>
