<?xml version="1.0" encoding="utf-8"?>
<svg viewBox="0 0 512 512" x="0px" y="0px" width="512px" height="512px" xmlns="http://www.w3.org/2000/svg">
  <path d="M 156.321 254.419 C 156.321 279.005 136.391 298.935 111.806 298.935 C 87.22 298.935 67.29 279.005 67.29 254.419 C 67.29 229.834 87.22 209.904 111.806 209.904 C 136.391 209.904 156.321 229.834 156.321 254.419 Z M 306.561 213.614 C 306.561 222.405 304.247 231.041 299.851 238.654 C 280.576 272.04 232.386 272.04 213.111 238.654 C 193.835 205.267 217.929 163.534 256.481 163.534 C 284.127 163.564 306.53 185.968 306.561 213.614 Z M 295.432 213.614 C 295.432 206.776 293.632 200.06 290.213 194.138 C 275.221 168.171 237.741 168.171 222.748 194.138 C 207.756 220.106 226.496 252.565 256.481 252.565 C 277.983 252.541 295.408 235.116 295.432 213.614 Z M 200.02 69.013 C 201.091 65.569 202.469 62.23 204.138 59.034 L 203.99 58.848 C 199.777 54.382 199.892 47.372 204.249 43.046 L 212.967 34.328 C 217.285 29.953 224.31 29.837 228.77 34.068 L 228.955 34.217 C 232.151 32.547 235.491 31.169 238.934 30.099 L 238.934 29.839 C 239.138 23.703 244.182 18.839 250.323 18.859 L 262.639 18.859 C 268.779 18.839 273.823 23.703 274.027 29.839 L 274.027 30.099 C 277.471 31.169 280.81 32.547 284.006 34.217 L 284.192 34.068 C 288.651 29.837 295.677 29.952 299.995 34.328 L 308.712 43.046 C 313.087 47.364 313.203 54.389 308.972 58.848 L 308.823 59.034 C 310.493 62.23 311.871 65.569 312.941 69.013 L 313.201 69.013 C 319.337 69.217 324.201 74.261 324.181 80.401 L 324.181 92.717 C 324.215 98.863 319.343 103.915 313.201 104.106 L 312.941 104.106 C 311.871 107.549 310.493 110.889 308.823 114.085 L 308.972 114.27 C 313.184 118.737 313.069 125.747 308.712 130.073 L 299.995 138.791 C 295.668 143.148 288.658 143.263 284.192 139.05 L 284.006 138.902 C 280.81 140.571 277.471 141.949 274.027 143.02 L 274.027 143.279 C 273.836 149.422 268.785 154.293 262.639 154.26 L 250.323 154.26 C 244.182 154.279 239.138 149.416 238.934 143.279 L 238.934 143.02 C 235.491 141.949 232.151 140.571 228.955 138.902 L 228.77 139.05 C 224.304 143.263 217.293 143.148 212.967 138.791 L 204.249 130.073 C 199.892 125.747 199.777 118.737 203.99 114.27 L 204.138 114.085 C 202.469 110.889 201.091 107.549 200.02 104.106 L 199.761 104.106 C 193.619 103.915 188.747 98.863 188.78 92.717 L 188.78 80.401 C 188.747 74.255 193.619 69.204 199.761 69.013 L 200.02 69.013 Z M 232.962 86.559 C 232.962 90.688 234.049 94.744 236.113 98.319 C 245.165 113.998 267.796 113.998 276.848 98.319 C 285.901 82.639 274.586 63.04 256.481 63.04 C 243.493 63.044 232.965 73.572 232.962 86.559 Z M 42.325 342.226 C 37.613 331.097 37.688 315.368 47.629 305.019 C 57.46 295.448 70.852 298.156 87.842 301.606 C 98.08 303.683 109.691 306.057 123.046 306.354 C 139.034 306.725 174.647 300.864 200.391 287.064 C 232.368 269.963 280.593 269.963 312.57 287.064 C 338.315 300.864 373.89 306.688 389.879 306.354 C 403.27 306.057 414.881 303.683 425.12 301.606 C 442.11 298.193 455.502 295.448 465.332 305.019 C 475.274 315.368 475.348 331.097 470.637 342.226 C 498.348 382.475 491.188 440.42 484.288 471.84 C 481.54 484.642 470.191 493.763 457.097 493.69 L 345.215 493.69 C 342.05 493.668 338.914 493.104 335.941 492.02 C 332.884 493.126 329.658 493.691 326.407 493.69 L 186.554 493.69 C 183.304 493.691 180.077 493.126 177.021 492.02 C 174.047 493.104 170.911 493.668 167.747 493.69 L 55.865 493.69 C 42.767 493.774 31.41 484.649 28.673 471.84 C 21.773 440.42 14.614 382.475 42.325 342.226 Z M 51.302 334.51 C 56.087 355.247 108.653 368.787 158.584 372.979 C 161.706 373.272 163.989 376.055 163.666 379.174 C 159.437 414.897 166.003 451.252 170.306 469.726 C 172.043 477.285 178.799 482.621 186.554 482.561 L 326.407 482.561 C 334.163 482.621 340.918 477.285 342.655 469.726 C 346.958 451.252 353.524 414.897 349.295 379.174 C 348.973 376.055 351.256 373.272 354.378 372.979 C 404.309 368.787 456.874 355.247 461.66 334.51 C 463.255 327.61 462.661 317.928 457.579 312.994 C 452.237 307.801 443.074 309.322 427.309 312.512 C 417.144 314.589 404.494 317.149 390.175 317.483 C 372.443 317.817 335.125 311.77 307.302 296.895 C 278.33 281.351 234.631 281.351 205.659 296.895 C 177.837 311.77 140.444 317.817 122.823 317.483 C 108.467 317.149 95.854 314.293 85.653 312.512 C 73.263 310.36 63.655 305.872 55.382 312.994 C 50.041 317.631 49.707 327.61 51.302 334.51 Z M 445.671 254.419 C 445.671 279.005 425.741 298.935 401.156 298.935 C 376.57 298.935 356.64 279.005 356.64 254.419 C 356.64 229.834 376.57 209.904 401.156 209.904 C 425.741 209.904 445.671 229.834 445.671 254.419 Z M 90.142 191.875 C 77.269 192.32 67.476 176.184 74.005 164.944 C 89.112 134.891 111.381 109.016 138.849 89.601 C 144.229 85.829 151.204 85.186 157.182 87.912 C 170.165 93.832 171.872 111.587 160.253 119.872 C 137.749 135.791 119.505 157.003 107.132 181.637 C 103.886 188.012 97.295 191.984 90.142 191.875 Z M 438.957 164.944 C 445.486 176.184 435.692 192.32 422.82 191.875 C 415.667 191.984 409.076 188.012 405.83 181.637 C 393.456 157.003 375.213 135.791 352.708 119.872 C 347.358 116.057 344.427 109.695 345.004 103.15 C 346.258 88.935 362.429 81.409 374.113 89.601 C 401.581 109.016 423.849 134.891 438.957 164.944 Z" style="fill: var(--icon-fill, #fff);"/>
</svg>
