<?xml version="1.0" encoding="utf-8"?>
<svg viewBox="0 0 512 512" x="0px" y="0px" width="512px" height="512px" xmlns="http://www.w3.org/2000/svg">
  <path d="M 281.198 159.263 L 306.048 159.263 L 297.934 362.11 L 277.028 389.979 L 256.122 362.11 L 248.008 159.263 L 272.859 159.263 L 272.859 196.789 C 272.859 198.282 273.651 199.658 274.943 200.4 C 277.72 202.001 281.198 200 281.198 196.789 L 281.198 159.263 Z M 239.669 159.263 L 246.432 328.32 C 199.975 288.785 172.357 231.479 170.389 170.504 C 187.3 161.031 205.421 153.885 224.242 149.257 C 226.894 155.327 232.881 159.255 239.502 159.263 L 239.669 159.263 Z M 314.554 150.924 L 239.502 150.924 C 236.525 150.924 233.774 149.332 232.281 146.755 C 229.07 141.193 233.081 134.246 239.502 134.246 L 314.554 134.246 C 319.157 134.246 322.893 137.982 322.893 142.585 C 322.893 147.188 319.157 150.924 314.554 150.924 Z M 329.814 149.257 C 348.635 153.893 366.756 161.048 383.667 170.521 C 381.699 231.496 354.081 288.802 307.624 328.337 L 314.387 159.263 L 314.554 159.263 C 321.175 159.255 327.162 155.327 329.814 149.257 Z M 431.3 46.687 L 431.3 396.926 C 431.3 413.045 418.233 426.112 402.113 426.112 L 122.756 426.112 L 122.756 17.5 L 402.113 17.5 C 418.233 17.5 431.3 30.567 431.3 46.687 Z M 392.073 168.228 C 392.107 166.71 391.306 165.293 389.988 164.534 C 371.568 153.926 351.729 145.996 331.073 140.984 C 330.248 132.462 323.109 125.949 314.554 125.907 L 297.876 125.907 L 297.876 75.873 C 303.838 75.873 309.342 72.696 312.319 67.534 C 318.74 56.418 310.718 42.517 297.876 42.517 L 256.18 42.517 C 250.218 42.517 244.714 45.694 241.737 50.856 C 235.316 61.972 243.338 75.873 256.18 75.873 L 256.18 125.907 L 239.502 125.907 C 230.93 125.932 223.775 132.453 222.949 140.984 C 202.294 145.996 182.455 153.926 164.034 164.534 C 162.717 165.293 161.916 166.71 161.95 168.228 C 163.359 235.123 194.488 297.916 246.874 339.536 L 247.841 363.72 C 247.875 364.562 248.167 365.379 248.675 366.055 L 273.692 399.411 C 275.36 401.637 278.696 401.637 280.364 399.411 L 305.381 366.055 C 305.889 365.379 306.181 364.562 306.215 363.72 L 307.182 339.536 C 359.559 297.908 390.672 235.115 392.073 168.228 Z M 264.519 75.873 L 289.537 75.873 L 289.537 125.907 L 264.519 125.907 L 264.519 75.873 Z M 431.3 420.492 L 431.3 459.468 L 143.604 459.468 C 142.111 459.468 140.735 460.26 139.993 461.553 C 138.392 464.33 140.393 467.807 143.604 467.807 L 431.3 467.807 L 431.3 480.316 C 431.3 487.221 425.696 492.824 418.791 492.824 L 118.587 492.824 C 108.163 492.824 98.523 487.262 93.311 478.231 C 82.078 458.776 96.121 434.451 118.587 434.451 L 402.113 434.451 C 413.454 434.443 424.178 429.314 431.3 420.492 Z M 256.18 67.534 C 253.203 67.534 250.452 65.941 248.959 63.365 C 245.748 57.803 249.759 50.856 256.18 50.856 L 297.876 50.856 C 300.853 50.856 303.604 52.449 305.097 55.026 C 308.308 60.588 304.297 67.534 297.876 67.534 L 256.18 67.534 Z M 89.4 440.339 L 89.4 46.687 C 89.442 32.218 100.091 19.968 114.417 17.925 L 114.417 426.537 C 104.577 427.63 95.571 432.592 89.4 440.339 Z" style="fill: var(--icon-fill, #fff);"/>
</svg>
