<?xml version="1.0" encoding="utf-8"?>
<svg viewBox="0 0 512 512" x="0px" y="0px" width="512px" height="512px" xmlns="http://www.w3.org/2000/svg">
  <path d="M 281.82 12 C 297.26 12 308.68 26.36 305.21 41.4 L 304.37 46.91 C 303.93 49.84 301.41 52.01 298.44 52.01 L 213.55 52.01 C 210.59 52.01 208.07 49.84 207.62 46.91 L 206.78 41.4 C 203.31 26.36 214.74 12 230.17 12 Z M 318 64 C 330.7 64 341 74.3 341 87 C 341 99.7 330.7 110 318 110 L 194 110 C 181.3 110 171 99.7 171 87 C 171 74.3 181.3 64 194 64 Z M 441.5 313.51 C 441.5 415.96 358.45 499.01 256 499.01 C 153.75 499.01 71.19 417.03 70.5 314.79 C 69.96 234.21 120.8 165.43 192.19 139.28 C 196.9 137.55 200 133.05 200 128.04 C 200 124.7 202.71 122 206.04 122 L 305.96 122 C 309.3 122 312 124.71 312 128.04 C 312 133.05 315.11 137.56 319.82 139.28 C 390.83 165.3 441.5 233.48 441.5 313.5 Z M 106.53 317.02 C 106.61 320.22 106.78 323.23 107.01 326.01 L 114.74 330.24 C 133.3 340.38 151.63 345.53 169.23 345.53 C 201.98 345.53 225.63 327.88 238.33 318.4 C 238.33 318.4 245.87 312.71 247.43 311.55 C 223.52 296.22 195.84 288 166.99 288 C 154.83 288 139.53 289.92 125.43 293.04 C 114.22 295.52 106.27 305.53 106.54 317.01 Z M 256 463 C 337.77 463 403.6 397.2 405.48 317.26 C 405.74 306.31 398.57 296.55 388.03 293.58 C 375.14 289.95 361.54 288 347.5 288 C 294.49 288 261.14 316.4 247.06 326.86 C 228.09 340.95 179.76 379.46 108.99 340.76 C 118.27 390.93 152.7 432.41 198.66 451.56 C 216.32 458.93 235.69 463 256 463 Z" style="fill: var(--icon-fill, #fff);"/>
</svg>
