<?xml version="1.0" encoding="utf-8"?>
<svg viewBox="0 0 512 512" x="0px" y="0px" width="512px" height="512px" xmlns="http://www.w3.org/2000/svg">
  <path d="M 58.587 468.28 L 86.613 468.28 C 93.15 483.185 107.869 492.826 124.145 492.864 L 386.378 492.864 C 402.653 492.826 417.372 483.185 423.91 468.28 L 451.936 468.28 C 465.497 468.24 476.48 457.257 476.52 443.696 L 476.52 371.91 C 476.554 362.571 471.28 354.023 462.917 349.866 L 427.352 332.083 L 427.352 165.073 L 443.741 165.073 C 457.302 165.033 468.285 154.05 468.326 140.489 L 468.326 74.931 C 468.285 61.37 457.302 50.387 443.741 50.347 L 419.157 50.347 C 419.157 45.821 415.488 42.152 410.962 42.152 L 378.183 42.152 C 373.657 42.152 369.988 45.821 369.988 50.347 L 312.625 50.347 L 312.625 33.957 C 312.584 20.396 301.601 9.413 288.041 9.373 L 222.482 9.373 C 208.922 9.413 197.939 20.396 197.898 33.957 L 197.898 50.347 L 140.535 50.347 C 140.535 45.821 136.866 42.152 132.34 42.152 L 99.561 42.152 C 95.035 42.152 91.366 45.821 91.366 50.347 L 66.782 50.347 C 53.221 50.387 42.238 61.37 42.197 74.931 L 42.197 140.489 C 42.238 154.05 53.221 165.033 66.782 165.073 L 83.171 165.073 L 83.171 332.083 L 47.606 349.866 C 39.243 354.023 33.969 362.571 34.003 371.91 L 34.003 443.696 C 34.043 457.257 45.026 468.24 58.587 468.28 Z M 337.209 451.891 L 304.43 451.891 C 298.122 451.891 294.179 445.062 297.333 439.598 C 298.797 437.063 301.502 435.501 304.43 435.501 L 337.209 435.501 C 343.518 435.501 347.46 442.33 344.306 447.793 C 342.842 450.329 340.137 451.891 337.209 451.891 Z M 386.378 58.541 L 402.767 58.541 L 402.767 156.879 L 386.378 156.879 L 386.378 58.541 Z M 214.288 33.957 C 214.288 29.431 217.957 25.762 222.482 25.762 L 288.041 25.762 C 292.566 25.762 296.235 29.431 296.235 33.957 L 296.235 50.347 L 214.288 50.347 L 214.288 33.957 Z M 107.756 58.541 L 124.145 58.541 L 124.145 156.879 L 107.756 156.879 L 107.756 58.541 Z M 99.561 173.268 L 132.34 173.268 C 136.866 173.268 140.535 169.599 140.535 165.073 L 369.988 165.073 C 369.988 169.599 373.657 173.268 378.183 173.268 L 410.962 173.268 L 410.962 238.826 C 410.926 270.492 385.265 296.154 353.599 296.19 L 353.599 263.001 C 369.054 259.863 375.317 241.17 364.871 229.355 C 360.977 224.95 355.38 222.431 349.501 222.437 L 308.528 222.437 C 292.757 222.421 282.883 239.484 290.754 253.149 C 293.688 258.243 298.669 261.831 304.43 263.001 L 304.43 296.19 L 206.093 296.19 L 206.093 263.001 C 221.548 259.863 227.811 241.17 217.365 229.355 C 213.472 224.95 207.874 222.431 201.995 222.437 L 161.022 222.437 C 145.251 222.421 135.377 239.484 143.248 253.149 C 146.183 258.243 151.163 261.831 156.924 263.001 L 156.924 296.19 C 125.258 296.154 99.597 270.492 99.561 238.826 L 99.561 173.268 Z M 99.561 285.045 C 113.505 302.462 134.613 312.593 156.924 312.579 L 156.924 353.553 C 156.924 372.478 177.411 384.306 193.801 374.844 C 201.407 370.452 206.093 362.336 206.093 353.553 L 206.093 312.579 L 304.43 312.579 L 304.43 353.553 C 304.43 372.478 324.917 384.306 341.307 374.844 C 348.913 370.452 353.599 362.336 353.599 353.553 L 353.599 312.579 C 375.91 312.593 397.018 302.462 410.962 285.045 L 410.962 451.891 C 410.922 465.451 399.939 476.434 386.378 476.475 L 378.183 476.475 L 378.183 419.111 C 378.143 405.551 367.159 394.568 353.599 394.527 L 156.924 394.527 C 143.363 394.568 132.38 405.551 132.34 419.111 L 132.34 476.475 L 124.145 476.475 C 110.584 476.434 99.601 465.451 99.561 451.891 L 99.561 285.045 Z" style="fill: var(--icon-fill, #fff);"/>
</svg>
