<?xml version="1.0" encoding="utf-8"?>
<svg viewBox="0 0 512 512" x="0px" y="0px" width="512px" height="512px" xmlns="http://www.w3.org/2000/svg">
  <path d="M 420.1 238.89 C 410.23 231.77 410.24 216.96 420.1 209.83 C 430.59 202.26 437.26 194.25 443.11 182.2 C 449.71 168.61 468.98 168.6 475.58 182.2 C 481.43 194.25 488.1 202.26 498.59 209.83 C 508.46 216.96 508.46 231.77 498.59 238.89 C 488.1 246.47 481.43 254.48 475.58 266.53 C 468.97 280.15 449.7 280.1 443.11 266.53 C 437.26 254.48 430.59 246.47 420.1 238.89 Z M 96.47 252.76 C 105.77 259.95 105.76 274.05 96.47 281.23 C 84.79 290.26 77.48 299.8 71.24 314.17 C 64.98 328.58 44.51 328.6 38.24 314.17 C 32 299.8 24.69 290.26 13.01 281.23 C 3.71 274.05 3.72 259.94 13.01 252.76 C 24.69 243.74 32 234.19 38.24 219.82 C 44.5 205.42 64.97 205.39 71.24 219.82 C 77.48 234.19 84.79 243.74 96.47 252.76 Z M 112 59 C 112 88.271 88.271 112 59 112 C 29.729 112 6 88.271 6 59 C 6 29.729 29.729 6 59 6 C 88.271 6 112 29.729 112 59 Z M 394 43.5 C 394 64.211 377.211 81 356.5 81 C 335.789 81 319 64.211 319 43.5 C 319 22.789 335.789 6 356.5 6 C 377.211 6 394 22.789 394 43.5 Z M 506 100.5 C 506 125.077 486.077 145 461.5 145 C 436.923 145 417 125.077 417 100.5 C 417 75.923 436.923 56 461.5 56 C 486.077 56 506 75.923 506 100.5 Z M 194.68 506 C 134.93 506 88.77 457.45 90.52 398.76 C 91.77 356.67 99.88 309.17 149.67 274.27 C 121.8 260.68 129.02 226.92 153.09 220.23 C 144.93 210.8 137.99 202.25 134.29 194.22 C 128.47 182.37 120.05 160.3 128.78 145.09 C 132.55 138.52 138.84 134.2 147.53 132.16 C 148.22 102.04 171.77 77.48 201.47 75.19 C 212.06 57.72 230.92 47 251.5 47 C 275.69 47 297.08 61.69 305.87 83.93 C 329.83 88.23 348.6 106.98 353 130.82 C 365.16 131.01 377.12 134.46 383.22 145.09 C 391.95 160.3 383.53 182.37 377.71 194.22 C 374.03 202.2 367.05 210.6 358.88 220.22 C 383.01 226.9 390.11 260.58 362.48 274.19 C 406.04 304.63 419.37 344.74 421.47 397.22 C 423.83 455.9 378.06 506.16 316.75 506 C 174.26 505.62 198.06 506 194.68 506 Z M 260.13 111.35 C 262.61 117.38 264.11 123.91 264.43 130.74 C 285.19 133.25 286.6 143.35 308.57 143.35 C 326.95 143.35 328.37 135.78 341.04 132.22 C 336.69 110.97 317.64 95 295.5 95 C 281.9 95 268.93 101.06 260.13 111.35 Z M 159.58 130.81 C 170.96 130.75 176.88 134.27 182.14 137.42 C 187.24 140.47 192.06 143.35 203.43 143.35 C 226.59 143.35 227.81 131.5 252.38 130.34 C 250.75 106.17 230.58 87 206 87 C 181.26 87 160.98 106.42 159.58 130.81 Z M 349.53 266.18 C 380.9 258.24 368.07 225.8 345.55 231.8 C 316.28 239.59 256.38 255.74 166.45 231.8 C 143.92 225.8 131.09 258.23 162.47 266.18 C 225.41 282.13 286.59 282.13 349.53 266.18 Z" style="fill: var(--icon-fill, #fff);"/>
</svg>
