<?xml version="1.0" encoding="utf-8"?>
<svg viewBox="0 0 512 512" x="0px" y="0px" width="512px" height="512px" xmlns="http://www.w3.org/2000/svg">
  <path d="M 138.99 470.58 C 141.29 470.91 142.31 473.65 140.84 475.45 C 134.07 483.75 129.49 488.59 120.29 491.61 C 88.33 502.1 68.39 467.03 68.39 433.52 L 68.39 164 C 68.39 160.69 71.08 158 74.39 158 L 100.7 158 C 104.01 158 106.7 160.69 106.7 164 L 106.7 433.52 C 106.7 459.48 123.21 468.27 138.99 470.58 Z M 409.62 158 L 435.97 158 C 439.284 158 441.97 160.686 441.97 164 L 441.97 397 C 441.97 400.314 439.284 403 435.97 403 L 409.62 403 C 406.306 403 403.62 400.314 403.62 397 L 403.62 164 C 403.62 160.686 406.306 158 409.62 158 Z M 486.74 36.64 C 494.38 38.72 500 45.69 500 53.99 L 500 103.99 C 500 112.29 494.38 119.26 486.74 121.34 C 484.85 121.86 483 120.39 483 118.43 L 483 39.56 C 483 37.61 484.85 36.14 486.74 36.65 Z M 25.26 36.66 C 27.15 36.14 29 37.61 29 39.57 L 29 118.44 C 29 120.39 27.15 121.86 25.26 121.35 C 17.62 119.27 12 112.3 12 104 L 12 54 C 12 45.7 17.62 38.73 25.26 36.65 Z M 65 12 L 447 12 C 460.255 12 471 22.745 471 36 L 471 122 C 471 135.255 460.255 146 447 146 L 65 146 C 51.745 146 41 135.255 41 122 L 41 36 C 41 22.745 51.745 12 65 12 Z M 312.48 283.51 L 300.62 297.65 C 298.91 299.69 298.05 302.32 298.24 304.97 L 299.53 323.38 C 300.38 335.51 288.23 344.33 276.96 339.78 L 259.85 332.87 C 257.38 331.87 254.63 331.87 252.16 332.87 L 235.05 339.78 C 223.78 344.33 211.63 335.51 212.48 323.38 L 213.77 304.97 C 213.95 302.31 213.1 299.69 211.39 297.65 L 199.53 283.51 C 191.71 274.19 196.35 259.91 208.15 256.97 L 226.06 252.5 C 228.64 251.86 230.87 250.24 232.28 247.98 L 242.06 232.33 C 248.5 222.02 263.52 222.02 269.96 232.33 L 279.74 247.98 C 281.15 250.24 283.38 251.86 285.96 252.5 L 303.87 256.97 C 315.66 259.91 320.3 274.2 312.49 283.51 Z M 481.74 415 C 492.78 415 501.19 424.85 499.53 435.77 C 493.92 472.69 473.7 500 449.6 500 L 136.39 500 C 134.05 500 133.24 496.89 135.34 495.75 C 151.28 487.12 164.6 465.75 169.26 435.53 C 171.07 423.76 181.09 415 193 415 Z" style="fill: var(--icon-fill, #fff);"/>
</svg>
