<?xml version="1.0" encoding="utf-8"?>
<svg viewBox="0 0 512 512" x="0px" y="0px" width="512px" height="512px" xmlns="http://www.w3.org/2000/svg">
  <path d="M 494.64 227.1 C 496.42 224.88 499.99 226.12 499.99 228.96 L 499.99 330 C 499.88 375.72 439.7 415.01 353.63 432.23 C 350.43 432.86 347.42 434.18 344.74 436.03 L 324.99 449.72 C 316.96 455.29 307.42 458.27 297.65 458.27 C 173.14 458.27 338.85 458.27 214.33 458.27 C 204.56 458.27 195.02 455.29 186.99 449.72 L 167.24 436.03 C 164.56 434.18 161.54 432.87 158.35 432.23 C 72.28 415.01 12.1 375.73 11.99 330 L 11.99 228.96 C 11.99 226.11 15.57 224.88 17.34 227.1 C 40.81 256.55 86.86 280.6 147.45 293.99 C 156.01 295.88 165.11 294.52 172.85 290.15 L 173 290.07 C 196.99 276.52 195.95 277.11 197.62 276.39 C 202.21 274.4 207.04 273.38 211.97 273.38 C 345.73 273.38 282.22 273.38 300.02 273.38 C 304.95 273.38 309.77 274.4 314.37 276.39 C 316.05 277.11 315.01 276.52 338.99 290.07 L 339.14 290.15 C 346.88 294.52 355.98 295.88 364.54 293.99 C 425.12 280.6 471.18 256.55 494.65 227.1 Z M 297.35 349.09 L 273.1 324.84 C 263.73 315.47 248.53 315.47 239.16 324.84 L 214.91 349.09 C 205.54 358.46 205.54 373.66 214.91 383.03 L 239.16 407.28 C 248.53 416.65 263.73 416.65 273.1 407.28 L 297.35 383.03 C 306.72 373.66 306.72 358.46 297.35 349.09 Z M 477.4 135.28 C 533.17 190.66 480.57 252.58 373.35 279.58 C 369.39 280.58 365.64 277.32 366.03 273.26 L 367.26 260.42 C 367.5 257.97 369.23 255.9 371.61 255.27 C 388.51 250.8 404.21 245.31 418.31 238.86 C 454.25 222.43 475.71 201.13 475.71 181.87 C 475.71 162.61 454.25 141.31 418.31 124.88 C 373.9 104.57 314.97 94.39 256 94.37 C 197.04 94.39 138.1 104.58 93.69 124.88 C 57.75 141.31 36.29 162.61 36.29 181.87 C 36.29 201.13 57.75 222.43 93.69 238.86 C 107.8 245.31 123.49 250.8 140.39 255.27 C 142.78 255.9 144.5 257.96 144.74 260.42 L 145.97 273.26 C 146.36 277.33 142.61 280.58 138.65 279.58 C 31.43 252.58 -21.18 190.66 34.6 135.28 C 78 92.19 166.98 70.58 256 70.55 C 345.02 70.58 434 92.19 477.4 135.28 Z M 413.34 135.79 C 450.52 152.79 463.72 171.24 463.72 181.87 C 463.72 195.8 442.84 217.33 398.35 234.19 C 395.57 235.24 392.49 235.21 389.72 234.13 C 351.33 219.16 305.4 207.03 256.01 207.01 C 206.62 207.03 160.69 219.15 122.3 234.13 C 119.53 235.22 116.45 235.24 113.67 234.19 C 69.31 217.37 48.3 195.89 48.3 181.87 C 48.3 171.24 61.49 152.79 98.68 135.79 C 140.14 116.83 196.01 106.39 256 106.37 C 315.99 106.39 371.86 116.84 413.32 135.79 Z M 352.29 257.24 C 354.16 258.44 355.2 260.58 354.99 262.79 L 353.81 275.07 C 353.43 279.02 349.01 281.95 345.05 279.69 L 323.67 267.59 C 316.45 263.51 308.31 261.36 300.02 261.36 C 168.4 261.36 343.59 261.36 211.97 261.36 C 203.68 261.36 195.53 263.51 188.32 267.59 L 166.94 279.69 C 162.98 281.95 158.56 279.02 158.18 275.07 L 157 262.79 C 156.79 260.58 157.83 258.44 159.7 257.24 L 175.15 247.32 C 182.89 242.36 191.89 239.72 201.08 239.72 C 365.24 239.72 146.73 239.72 310.9 239.72 C 320.1 239.72 329.09 242.36 336.83 247.32 L 352.28 257.24 Z" style="fill: var(--icon-fill, #fff);"/>
</svg>
