<?xml version="1.0" encoding="utf-8"?>
<svg viewBox="0 0 512 512" x="0px" y="0px" width="512px" height="512px" xmlns="http://www.w3.org/2000/svg">
  <path d="M 448.482 341.597 C 448.482 363.394 430.812 381.064 409.015 381.064 C 387.218 381.064 369.548 363.394 369.548 341.597 C 369.548 319.8 387.218 302.13 409.015 302.13 C 430.812 302.13 448.482 319.8 448.482 341.597 Z M 467.977 487.534 L 350.053 487.534 C 341.527 487.566 334.389 481.081 333.605 472.591 C 333.356 470.323 333.234 468.044 333.238 465.763 C 333.238 438.69 347.681 413.674 371.127 400.138 C 421.645 370.972 484.792 407.429 484.792 465.763 C 484.796 468.056 484.674 470.348 484.425 472.628 C 483.624 481.103 476.49 487.569 467.977 487.534 Z M 17.501 465.763 C 17.501 438.69 31.944 413.674 55.39 400.138 C 105.908 370.972 169.055 407.429 169.055 465.763 C 169.059 468.056 168.937 470.348 168.688 472.628 C 167.887 481.103 160.753 487.569 152.24 487.534 L 34.316 487.534 C 25.79 487.566 18.652 481.081 17.868 472.591 C 17.619 470.323 17.497 468.044 17.501 465.763 Z M 132.745 341.597 C 132.745 363.394 115.075 381.064 93.278 381.064 C 71.481 381.064 53.811 363.394 53.811 341.597 C 53.811 319.8 71.481 302.13 93.278 302.13 C 115.075 302.13 132.745 319.8 132.745 341.597 Z M 17.501 181.232 C 17.501 154.16 31.944 129.144 55.39 115.607 C 105.908 86.441 169.055 122.899 169.055 181.232 C 169.059 183.526 168.937 185.818 168.688 188.098 C 167.887 196.573 160.753 203.038 152.24 203.003 L 34.316 203.003 C 25.79 203.035 18.652 196.551 17.868 188.061 C 17.619 185.793 17.497 183.514 17.501 181.232 Z M 132.745 57.067 C 132.745 78.864 115.075 96.534 93.278 96.534 C 71.481 96.534 53.811 78.864 53.811 57.067 C 53.811 35.27 71.481 17.6 93.278 17.6 C 115.075 17.6 132.745 35.27 132.745 57.067 Z M 371.127 115.607 C 421.645 86.441 484.792 122.899 484.792 181.232 C 484.796 183.526 484.674 185.818 484.425 188.098 C 483.624 196.573 476.49 203.038 467.977 203.003 L 350.053 203.003 C 341.527 203.035 334.389 196.551 333.605 188.061 C 333.356 185.793 333.234 183.514 333.238 181.232 C 333.238 154.16 347.681 129.144 371.127 115.607 Z M 448.482 57.067 C 448.482 78.864 430.812 96.534 409.015 96.534 C 387.218 96.534 369.548 78.864 369.548 57.067 C 369.548 35.27 387.218 17.6 409.015 17.6 C 430.812 17.6 448.482 35.27 448.482 57.067 Z M 105.614 233.035 C 103.852 245.984 103.852 259.113 105.614 272.062 C 107.376 282.635 98.198 293.209 87.477 292.952 C 78.311 292.921 70.556 286.167 69.267 277.091 C 67.028 260.818 67.028 244.315 69.267 228.042 C 70.406 218.239 80.208 210.787 89.937 212.365 C 99.976 213.741 106.996 222.998 105.614 233.035 Z M 396.679 272.062 C 398.442 259.113 398.442 245.984 396.679 233.035 C 395.297 222.998 402.318 213.741 412.356 212.365 C 422.085 210.787 431.888 218.239 433.026 228.042 C 435.265 244.315 435.265 260.818 433.026 277.091 C 431.737 286.167 423.982 292.921 414.816 292.952 C 404.095 293.209 394.917 282.635 396.679 272.062 Z M 171.405 106.704 C 167.44 97.672 172.176 86.327 181.391 82.766 C 225.41 64.446 276.883 64.446 320.902 82.766 C 330.273 86.616 334.745 97.336 330.889 106.704 C 327.364 115.882 315.909 120.655 306.915 116.69 C 272.073 102.041 230.367 102.078 195.342 116.69 C 186.31 120.655 174.966 115.919 171.405 106.704 Z M 171.405 398.43 C 174.966 389.215 186.31 384.479 195.342 388.444 C 230.367 403.056 272.073 403.092 306.915 388.444 C 315.909 384.479 327.364 389.251 330.889 398.43 C 334.745 407.797 330.273 418.518 320.902 422.367 C 276.883 440.687 225.41 440.687 181.391 422.367 C 172.176 418.806 167.44 407.461 171.405 398.43 Z M 174.461 217.467 L 207.332 202.873 C 208.712 202.262 209.948 201.365 210.956 200.242 L 234.992 173.495 C 243.167 163.98 259.131 163.983 267.306 173.495 L 291.342 200.245 C 292.349 201.367 293.582 202.262 294.96 202.873 L 327.83 217.467 C 339.404 222.306 344.339 237.483 337.815 248.2 L 319.81 279.331 C 319.052 280.634 318.58 282.083 318.426 283.583 L 314.701 319.357 C 313.674 331.858 300.76 341.25 288.553 338.349 L 253.385 330.841 C 251.91 330.525 250.386 330.525 248.911 330.841 L 213.742 338.349 C 201.574 341.254 188.604 331.857 187.594 319.357 L 183.869 283.583 C 183.716 282.085 183.247 280.637 182.492 279.335 L 164.475 248.2 C 157.957 237.485 162.89 222.307 174.461 217.467 Z M 174.013 242.678 L 192.026 273.813 C 193.56 276.458 194.516 279.399 194.83 282.441 L 198.554 318.214 C 199.243 324.529 205.225 328.875 211.444 327.576 L 246.612 320.069 C 249.604 319.423 252.699 319.423 255.69 320.069 L 290.859 327.576 C 297.077 328.875 303.061 324.529 303.748 318.214 L 307.473 282.441 C 307.787 279.398 308.744 276.457 310.28 273.813 L 328.286 242.685 C 331.443 237.173 329.158 230.138 323.363 227.533 L 290.5 212.94 C 287.702 211.704 285.199 209.888 283.157 207.612 L 259.114 180.859 C 254.847 176.152 247.451 176.152 243.184 180.859 L 219.137 207.608 C 217.095 209.886 214.592 211.703 211.794 212.94 L 178.931 227.533 C 173.145 230.142 170.864 237.167 174.013 242.678 Z" style="fill: var(--icon-fill, #fff);"/>
</svg>
