<?xml version="1.0" encoding="utf-8"?>
<svg viewBox="0 0 512 512" height="512" width="512" xmlns="http://www.w3.org/2000/svg">
  <g style="fill: var(--icon-fill, #fff); touch-action: none;" transform="matrix(5.548011, 0, 0, 5.548011, -21.684652, -24.12006)">
    <polygon points="86.9,88 83.8,88 81.2,59 74.9,59 76.9,77 65.2,77.1 65,82.1 61,81.9 61.4,73.1 72.4,73 67.2,25.9 58.7,26 61,48.8    57,49.2 53.2,12 44.8,12 40.9,53.2 49.1,54.1 47.7,70.5 43.7,70.1 44.8,57.7 36.5,56.8 38.7,34 31,34 26.5,78.2 22.5,77.8 23.7,67    17.9,67 16.3,88 12.2,88 8,88 8,92 12.2,92 83.4,92 86.9,92 87.8,92 92,92 92,88 87.8,88  "/>
  </g>
</svg>
