<?xml version="1.0" encoding="utf-8"?>
<svg viewBox="0 0 512 512" x="0px" y="0px" width="512px" height="512px" xmlns="http://www.w3.org/2000/svg">
  <path d="M 294.038 296.962 C 294.038 304.073 292.166 311.06 288.61 317.219 C 273.015 344.229 234.031 344.229 218.437 317.219 C 202.842 290.209 222.335 256.447 253.523 256.447 C 275.888 256.471 294.013 274.597 294.038 296.962 Z M 282.731 296.962 C 282.731 291.834 281.382 286.798 278.818 282.357 C 267.576 262.885 239.47 262.885 228.228 282.357 C 216.986 301.83 231.038 326.17 253.523 326.17 C 269.647 326.152 282.713 313.085 282.731 296.962 Z M 495.242 185.179 C 495.242 216.46 459.664 241.673 411.499 246.761 C 398.195 295.793 375.318 340.943 341.738 384.473 C 356.399 396.119 364.766 410.591 364.766 426.043 C 364.766 464.07 316.111 493.881 254.038 493.881 C 191.966 493.881 143.311 464.07 143.311 426.043 C 143.311 410.591 151.678 396.119 166.338 384.473 C 132.758 340.943 109.882 295.793 96.578 246.761 C 48.413 241.673 12.835 216.46 12.835 185.179 C 12.835 166.448 26.026 149.074 49.053 137.24 C 51.911 132.802 55.22 128.672 58.928 124.916 C 89.561 93.911 139.624 93.911 170.258 124.916 C 173.967 128.682 177.287 132.811 180.17 137.24 C 191.703 143.157 200.785 150.506 206.966 158.722 C 222.569 157.365 238.36 156.611 254.038 156.574 C 269.717 156.611 285.508 157.365 301.111 158.722 C 307.292 150.506 316.374 143.157 327.907 137.24 C 330.79 132.811 334.11 128.682 337.819 124.916 C 368.453 93.911 418.515 93.911 449.149 124.916 C 452.857 128.672 456.166 132.802 459.024 137.24 C 482.051 149.074 495.242 166.448 495.242 185.179 Z M 114.593 236.397 C 163.625 236.397 205.044 212.955 205.044 185.179 C 205.044 174.852 199.353 164.865 189.064 156.385 C 191.363 163.881 192.483 171.687 192.381 179.526 C 192.192 193.96 182.356 204.4 167.771 211.259 C 153.185 218.081 133.814 221.322 114.593 221.322 C 76.113 221.322 37.182 208.395 36.805 179.526 C 36.703 171.687 37.822 163.881 40.121 156.385 C 29.833 164.865 24.142 174.852 24.142 185.179 C 24.142 212.955 65.561 236.397 114.593 236.397 Z M 254.038 454.987 C 286.902 454.987 320.256 444.472 320.52 424.347 C 320.754 406.941 313.961 390.174 301.676 377.84 C 275.459 351.308 232.618 351.308 206.401 377.84 C 194.116 390.174 187.323 406.941 187.557 424.347 C 187.708 434.41 196.112 442.06 208.587 447.224 C 221.061 452.349 237.607 454.987 254.038 454.987 Z M 399.552 247.59 C 397.554 247.666 395.519 247.703 393.484 247.703 C 336.424 247.703 291.726 220.267 291.726 185.179 C 291.742 179.82 292.818 174.518 294.892 169.576 C 281.325 168.483 267.644 167.918 254.038 167.88 C 240.433 167.918 226.752 168.483 213.185 169.576 C 215.258 174.518 216.334 179.82 216.35 185.179 C 216.35 220.267 171.653 247.703 114.593 247.703 C 112.558 247.703 110.523 247.666 108.525 247.59 C 121.603 293.871 143.65 336.647 175.61 377.991 C 184.153 372.879 193.275 368.805 202.783 365.855 C 232.148 340.227 275.929 340.227 305.294 365.855 C 314.802 368.805 323.924 372.879 332.467 377.991 C 364.427 336.647 386.436 293.871 399.552 247.59 Z M 483.935 185.179 C 483.935 174.852 478.244 164.865 467.956 156.385 C 470.255 163.881 471.374 171.687 471.272 179.526 C 471.084 193.96 461.247 204.4 446.662 211.259 C 432.077 218.081 412.705 221.322 393.484 221.322 C 355.042 221.322 316.073 208.395 315.696 179.526 C 315.594 171.687 316.714 163.881 319.013 156.385 C 308.724 164.865 303.033 174.852 303.033 185.179 C 303.033 212.955 344.452 236.397 393.484 236.397 C 442.516 236.397 483.935 212.955 483.935 185.179 Z M 155.107 51.99 C 155.107 74.365 136.968 92.504 114.593 92.504 C 92.218 92.504 74.078 74.365 74.078 51.99 C 74.078 29.614 92.218 11.475 114.593 11.475 C 136.968 11.475 155.107 29.614 155.107 51.99 Z M 433.999 51.99 C 433.999 74.365 415.859 92.504 393.484 92.504 C 371.109 92.504 352.969 74.365 352.969 51.99 C 352.969 29.614 371.109 11.475 393.484 11.475 C 415.859 11.475 433.999 29.614 433.999 51.99 Z" style="fill: var(--icon-fill, #fff);"/>
</svg>
