<?xml version="1.0" encoding="utf-8"?>
<svg viewBox="0 0 512 512" x="0px" y="0px" width="512px" height="512px" xmlns="http://www.w3.org/2000/svg">
  <path d="M 32.243 397.848 C 23.089 365.267 23.555 327.798 24.02 294.673 L 24.02 293.122 C 24.718 237.346 40.388 185.758 66.997 151.625 C 68.703 149.492 70.937 147.848 73.482 146.855 C 84.606 142.51 96.266 151.843 94.458 163.65 C 91.076 187.325 101.044 210.924 120.368 225.011 C 139.878 240.487 165.338 246.329 189.642 240.914 C 151.708 208.418 142.849 153.254 168.697 110.511 C 157.891 91.87 151.196 71.134 149.071 49.692 C 147.589 36.45 157.426 24.643 170.714 23.705 C 208.803 21.145 237.273 34.41 252.168 60.708 C 255.216 60.475 258.273 60.475 261.322 60.708 C 276.216 34.41 304.686 21.145 342.775 23.705 C 356.064 24.643 365.9 36.45 364.418 49.692 C 362.293 71.134 355.598 91.87 344.792 110.511 C 370.64 153.254 361.781 208.418 323.847 240.914 C 348.159 246.337 373.611 240.495 393.121 225.011 C 412.445 210.924 422.413 187.325 419.031 163.65 C 418.62 160.95 418.923 158.188 419.923 155.644 C 424.283 144.527 439.038 142.293 446.493 151.625 C 473.101 185.758 488.771 237.346 489.469 293.122 L 489.469 294.673 C 489.935 327.72 490.4 365.267 481.246 397.848 C 479.392 404.737 473.023 409.438 465.886 409.174 C 458.633 408.988 452.481 403.798 451.07 396.684 C 448.044 382.1 440.054 374.653 427.409 374.653 C 413.756 374.653 402.042 384.893 388.389 409.019 C 382.509 419.049 368.127 419.383 361.781 409.639 C 355.241 400.144 345.296 393.535 334.009 391.177 C 319.425 432.989 288.783 468.131 273.423 483.956 C 264.254 493.265 249.235 493.265 240.066 483.956 C 224.706 468.131 194.064 432.989 179.48 391.177 C 168.193 393.535 158.248 400.144 151.708 409.639 C 145.355 419.406 130.934 419.026 125.1 408.941 C 111.447 384.893 99.733 374.653 86.08 374.653 C 73.435 374.653 65.445 382.1 62.42 396.684 C 61.008 403.798 54.856 408.988 47.603 409.174 C 40.458 409.484 34.058 404.768 32.243 397.848 Z M 365.892 299.949 C 375.434 323.686 372.098 368.37 369.073 393.892 L 369.073 393.969 C 371.323 396.211 373.301 398.709 374.969 401.416 C 378.235 395.56 381.865 389.912 385.829 384.505 C 388.699 354.716 389.63 317.48 380.321 294.208 C 378.7 290.259 374.224 288.328 370.237 289.864 C 366.288 291.485 364.356 295.961 365.892 299.949 Z M 308.565 74.594 C 318.541 80.482 327.477 87.983 335.018 96.78 C 342.41 81.374 347.127 64.819 348.981 47.83 C 349.167 46.178 348.787 44.502 347.895 43.098 C 333.427 51.779 320.201 62.376 308.565 74.594 Z M 178.472 96.78 C 186.012 87.983 194.948 80.482 204.925 74.594 C 193.288 62.376 180.062 51.779 165.594 43.098 C 164.702 44.502 164.322 46.178 164.508 47.83 C 166.362 64.819 171.079 81.374 178.472 96.78 Z M 256.745 250.533 C 272.066 250.533 287.115 246.499 300.38 238.843 C 358.562 205.253 358.562 121.27 300.38 87.68 C 242.199 54.091 169.473 96.082 169.473 163.262 C 169.543 211.428 208.578 250.464 256.745 250.533 Z M 209.269 254.335 C 193.971 282.657 186.276 314.463 186.927 346.649 C 186.927 401.184 231.843 453.314 251.159 473.173 C 254.27 476.199 259.219 476.199 262.33 473.173 C 281.646 453.314 326.562 401.184 326.562 346.649 C 327.214 314.463 319.518 282.657 304.22 254.335 C 274.494 269.95 238.995 269.95 209.269 254.335 Z M 127.66 384.35 C 131.663 389.772 135.317 395.451 138.598 401.339 C 140.266 398.631 142.213 396.11 144.416 393.814 C 141.391 368.292 138.055 323.686 147.597 299.949 C 148.621 297.373 148.194 294.441 146.472 292.269 C 142.772 287.575 135.379 288.654 133.168 294.208 C 123.859 317.403 124.79 354.639 127.66 384.35 Z M 274.99 149.096 C 272.927 147.103 272.135 144.139 272.919 141.378 C 274.571 135.637 281.809 133.83 285.959 138.127 C 288.589 141.316 292.429 143.263 296.556 143.511 C 299.946 143.046 303.049 141.355 305.268 138.748 C 307.975 135.474 312.8 134.962 316.128 137.6 C 319.425 140.253 319.984 145.063 317.385 148.406 C 312.451 154.441 305.306 158.258 297.541 158.995 C 297.045 159.042 296.556 159.042 296.067 159.042 C 287.984 158.724 280.374 155.14 274.99 149.096 Z M 196.74 149.096 C 194.879 147.173 194.149 144.426 194.793 141.828 C 196.236 136.033 203.412 133.977 207.71 138.127 C 210.339 141.316 214.179 143.263 218.306 143.511 C 221.696 143.046 224.799 141.355 227.018 138.748 C 229.725 135.474 234.55 134.962 237.878 137.6 C 241.175 140.253 241.734 145.063 239.135 148.406 C 233.821 154.775 226.095 158.63 217.818 159.042 C 209.734 158.724 202.124 155.14 196.74 149.096 Z M 237.428 168.692 C 249.678 174.378 263.812 174.378 276.061 168.692 C 277.255 167.978 278.628 167.606 280.017 167.606 C 288.899 167.877 296.641 173.726 299.333 182.19 C 300.652 186.922 301.971 199.101 284.206 210.505 C 280.63 212.824 275.844 211.823 273.501 208.255 C 269.513 200.862 263.757 194.571 256.745 189.947 C 249.732 194.571 243.976 200.862 239.988 208.255 C 237.646 211.823 232.859 212.824 229.283 210.505 C 211.518 199.101 212.837 186.922 214.156 182.19 C 216.848 173.726 224.59 167.877 233.472 167.606 C 234.861 167.606 236.234 167.978 237.428 168.692 Z" style="fill: var(--icon-fill, #fff);"/>
</svg>
