<?xml version="1.0" encoding="utf-8"?>
<svg viewBox="0 0 512 512" x="0px" y="0px" width="512px" height="512px" xmlns="http://www.w3.org/2000/svg">
  <path d="M 274.408 221.844 C 272.326 219.832 271.527 216.841 272.318 214.053 C 273.985 208.26 281.29 206.435 285.479 210.773 C 290.067 217.569 299.956 217.89 304.967 211.399 C 307.699 208.095 312.569 207.578 315.928 210.241 C 319.255 212.918 319.819 217.772 317.196 221.147 C 311.833 227.575 304.035 231.466 295.681 231.881 C 287.523 231.56 279.842 227.943 274.408 221.844 Z M 216.729 231.881 C 208.563 231.568 200.874 227.943 195.433 221.844 C 193.554 219.902 192.818 217.13 193.467 214.508 C 194.924 208.659 202.166 206.584 206.503 210.773 C 211.091 217.569 220.98 217.89 225.991 211.399 C 228.723 208.095 233.593 207.578 236.952 210.241 C 240.28 212.918 240.843 217.772 238.221 221.147 C 232.865 227.567 225.075 231.458 216.729 231.881 Z M 234.783 263.567 C 233.139 261.696 232.482 259.159 233.014 256.724 C 234.298 250.836 241.478 248.55 245.933 252.606 C 251.397 258.517 260.754 258.486 266.172 252.535 C 268.074 250.805 270.705 250.124 273.21 250.703 C 279.075 252.065 281.275 259.276 277.156 263.676 C 265.522 275.601 246.347 275.562 234.76 263.598 L 234.783 263.567 Z M 91.575 387.562 L 91.575 332.051 L 75.916 332.051 C 62.958 332.012 52.467 321.52 52.428 308.563 L 52.428 245.927 C 52.467 232.969 62.958 222.478 75.916 222.439 L 99.404 222.439 C 99.404 218.117 102.912 214.609 107.234 214.609 L 134.011 214.609 C 131.834 209.677 130.714 204.345 130.722 198.95 L 130.722 113.14 C 128.608 60.604 194.219 16.681 255.993 18.873 C 325.049 18.873 381.264 61.152 381.264 113.14 L 381.264 198.95 C 381.272 204.345 380.153 209.677 377.976 214.609 L 404.753 214.609 C 409.075 214.609 412.582 218.117 412.582 222.439 L 436.071 222.439 C 449.028 222.478 459.52 232.969 459.559 245.927 L 459.559 308.563 C 459.52 321.52 449.028 332.012 436.071 332.051 L 420.412 332.051 L 420.412 387.483 C 445.521 412.037 459.637 445.695 459.559 480.81 C 459.559 485.132 456.051 488.64 451.729 488.64 L 60.257 488.64 C 55.935 488.64 52.428 485.132 52.428 480.81 C 52.436 459.209 57.76 437.936 67.93 418.88 C 74.162 407.292 82.133 396.73 91.575 387.562 Z M 381.264 324.222 L 396.923 324.222 L 396.923 230.268 L 381.264 230.268 L 381.264 324.222 Z M 304.066 374.487 C 289.464 382.903 272.842 387.178 255.993 386.857 C 239.144 387.178 222.522 382.903 207.921 374.487 C 215.28 406.767 218.154 439.917 216.455 472.981 L 295.532 472.981 C 293.833 439.917 296.706 406.767 304.066 374.487 Z M 310.565 342.856 C 300.535 333.633 292.948 322.068 288.486 309.189 C 267.338 315.868 244.648 315.868 223.501 309.189 C 219.038 322.068 211.452 333.633 201.422 342.856 C 204.162 358.515 228.042 371.198 255.993 371.198 C 283.944 371.198 307.824 358.515 310.565 342.856 Z M 349.947 221.029 C 356.711 218.595 361.981 213.2 364.275 206.388 C 359.577 205.997 354.801 205.449 349.947 204.666 L 349.947 221.029 Z M 357.62 360.628 C 345.797 387.875 340.082 435.165 342.665 472.981 L 362.004 472.981 C 359.647 437.835 363.405 402.547 373.122 368.693 C 367.876 365.874 362.709 363.212 357.62 360.628 Z M 177.699 234.809 C 177.699 269.964 212.853 298.541 255.993 298.541 C 299.134 298.541 334.288 269.964 334.288 234.809 L 334.288 201.378 C 295.759 190.44 258.906 174.296 224.754 153.383 L 177.699 183.292 L 177.699 234.809 Z M 146.773 203.022 C 148.284 211.321 154.101 218.187 162.04 221.029 L 162.04 193.313 L 146.773 203.022 Z M 154.367 360.628 C 149.278 363.212 144.111 365.874 138.865 368.693 C 148.581 402.547 152.339 437.835 149.983 472.981 L 169.321 472.981 C 171.905 435.165 166.19 387.875 154.367 360.628 Z M 115.063 324.222 L 130.722 324.222 L 130.722 230.268 L 115.063 230.268 L 115.063 324.222 Z" style="fill: var(--icon-fill, #fff);"/>
</svg>
