<?xml version="1.0" encoding="utf-8"?>
<svg viewBox="0 0 512 512" height="512" width="512" xmlns="http://www.w3.org/2000/svg">
  <g style="fill: var(--icon-fill, #fff); touch-action: none;" fill-rule="evenodd" transform="matrix(18.732887, 0, 0, 18.732887, 28.83806, 35.702229)">
      <path d="M15.0001,21.9996 C14.4481,21.9996 14.0001,21.5506 14.0001,20.9996 C14.0001,20.4486 14.4481,19.9996 15.0001,19.9996 C15.5521,19.9996 16.0001,20.4486 16.0001,20.9996 C16.0001,21.5506 15.5521,21.9996 15.0001,21.9996 L15.0001,21.9996 Z M5.0001,21.9996 C4.4481,21.9996 4.0001,21.5506 4.0001,20.9996 C4.0001,20.4486 4.4481,19.9996 5.0001,19.9996 C5.5521,19.9996 6.0001,20.4486 6.0001,20.9996 C6.0001,21.5506 5.5521,21.9996 5.0001,21.9996 L5.0001,21.9996 Z M9.3581,7.9266 C9.5651,7.9726 9.7791,7.9996 10.0001,7.9996 C10.2211,7.9996 10.4351,7.9716 10.6421,7.9266 L14.3471,14.9996 L5.6531,14.9996 L9.3581,7.9266 Z M23.0001,16.9996 L20.0001,16.9996 L20.0001,15.9996 C20.0001,15.4476 19.5531,14.9996 19.0001,14.9996 L16.6051,14.9996 L12.3391,6.8556 C12.7461,6.3436 13.0001,5.7036 13.0001,4.9996 C13.0001,4.9906 12.9971,4.9826 12.9971,4.9736 L20.0001,2.4276 L20.0001,5.1836 C18.8391,5.5976 18.0001,6.6976 18.0001,7.9996 C18.0001,9.6536 19.3461,10.9996 21.0001,10.9996 C22.6541,10.9996 24.0001,9.6536 24.0001,7.9996 C24.0001,6.6976 23.1611,5.5976 22.0001,5.1836 L22.0001,0.9996 C22.0001,0.9376 21.9761,0.8836 21.9651,0.8246 C21.9551,0.7686 21.9601,0.7126 21.9391,0.6576 C21.9371,0.6496 21.9301,0.6446 21.9271,0.6376 C21.8991,0.5646 21.8521,0.5056 21.8081,0.4426 C21.7771,0.3976 21.7551,0.3456 21.7171,0.3076 C21.6741,0.2626 21.6181,0.2336 21.5661,0.1976 C21.5131,0.1596 21.4651,0.1156 21.4061,0.0886 C21.3561,0.0666 21.2991,0.0636 21.2461,0.0496 C21.1731,0.0306 21.1021,0.0066 21.0261,0.0046 C21.0171,0.0046 21.0091,-0.0004 21.0001,-0.0004 C20.9391,-0.0004 20.8871,0.0236 20.8291,0.0346 C20.7721,0.0436 20.7151,0.0396 20.6581,0.0596 L12.3011,3.0986 C11.7501,2.4326 10.9291,1.9996 10.0001,1.9996 C8.3461,1.9996 7.0001,3.3456 7.0001,4.9996 C7.0001,5.0136 7.0041,5.0256 7.0041,5.0396 L4.9941,5.9716 C4.9791,5.4336 4.5431,4.9996 4.0001,4.9996 L1.0001,4.9996 C0.4471,4.9996 0.0001,5.4476 0.0001,5.9996 L0.0001,9.9996 C0.0001,10.5516 0.4471,10.9996 1.0001,10.9996 L4.0001,10.9996 C4.5531,10.9996 5.0001,10.5516 5.0001,9.9996 L5.0001,8.1746 L7.6031,6.9666 L3.3951,14.9996 L1.0001,14.9996 C0.4471,14.9996 0.0001,15.4476 0.0001,15.9996 L0.0001,20.9996 C0.0001,21.5516 0.4471,21.9996 1.0001,21.9996 L2.1841,21.9996 C2.5981,23.1606 3.6981,23.9996 5.0001,23.9996 C6.3021,23.9996 7.4021,23.1606 7.8161,21.9996 L12.1841,21.9996 C12.5981,23.1606 13.6981,23.9996 15.0001,23.9996 C16.3021,23.9996 17.4021,23.1606 17.8161,21.9996 L19.0001,21.9996 C19.5531,21.9996 20.0001,21.5516 20.0001,20.9996 L20.0001,18.9996 L22.0001,18.9996 L22.0001,19.9996 C22.0001,20.5516 22.4471,20.9996 23.0001,20.9996 C23.5531,20.9996 24.0001,20.5516 24.0001,19.9996 L24.0001,17.9996 C24.0001,17.4476 23.5531,16.9996 23.0001,16.9996 L23.0001,16.9996 Z"/>
  </g>
</svg>
