<?xml version="1.0" encoding="utf-8"?>
<svg viewBox="0 0 512 512" x="0px" y="0px" width="512px" height="512px" xmlns="http://www.w3.org/2000/svg">
  <path d="M 48 452 L 48 60 C 48 30.22 72.22 6 102 6 L 410 6 C 439.78 6 464 30.22 464 60 L 464 155.2 C 475.83 159.33 484 170.53 484 183.5 L 484 260.5 C 484 273.46 475.84 284.64 464 288.79 L 464 452 C 464 481.78 439.78 506 410 506 L 102 506 C 72.22 506 48 481.78 48 452 Z M 160.87 222 C 160.87 274.45 203.55 317.13 256 317.13 C 308.45 317.13 351.13 274.45 351.13 222 C 351.13 169.55 308.45 126.87 256 126.87 C 203.55 126.87 160.87 169.55 160.87 222 Z M 256 115.17 C 259.31 115.17 262 112.48 262 109.17 L 262 94 C 262 90.69 259.31 88 256 88 C 252.69 88 250 90.69 250 94 L 250 109.17 C 250 112.48 252.69 115.17 256 115.17 Z M 256 328.83 C 252.69 328.83 250 331.52 250 334.83 L 250 350 C 250 353.31 252.69 356 256 356 C 259.31 356 262 353.31 262 350 L 262 334.83 C 262 331.52 259.31 328.83 256 328.83 Z M 164.33 438 C 164.8 445.62 166.14 452.25 168.06 458 L 410 458 C 432.46 458 450.86 440.22 451.95 417.96 C 442.04 430.17 426.92 438 410 438 Z M 452 449.84 C 442.09 462.12 426.95 470 410 470 L 173.52 470 C 183.87 487.39 199.53 492.95 203.01 494 L 410 494 C 433.16 494 452 475.16 452 452 Z M 452 290.5 L 428 290.5 L 428 384 C 428 393.93 419.92 402 410 402 L 168.98 402 C 169.09 410.22 168.16 418.19 166.2 426 L 410 426 C 433.16 426 452 407.16 452 384 Z M 368.83 228 L 384 228 C 387.31 228 390 225.31 390 222 C 390 218.69 387.31 216 384 216 L 368.83 216 C 365.52 216 362.83 218.69 362.83 222 C 362.83 225.31 365.52 228 368.83 228 Z M 454 165.5 C 421.06 165.5 422.81 165.49 422.55 165.52 C 419.41 165.83 417 168.4 417 171.5 L 417 272.5 C 417 275.72 419.63 278.5 423 278.5 C 456.54 278.5 455.01 278.6 456.95 278.25 C 465.7 276.79 472 269.33 472 260.5 L 472 183.5 C 472 173.46 463.92 165.5 454 165.5 Z M 60 311.34 C 68.13 309.96 76.05 309.67 84 310.37 L 84 126.84 C 84 123.9 86.13 121.4 89.03 120.92 C 125.82 114.87 153.66 84.69 156.72 47.51 C 156.98 44.4 159.58 42 162.7 42 L 410 42 C 419.92 42 428 50.07 428 60 L 428 153.5 L 452 153.5 L 452 60 C 452 36.84 433.16 18 410 18 L 102 18 C 78.84 18 60 36.84 60 60 Z M 143.17 216 L 128 216 C 124.69 216 122 218.69 122 222 C 122 225.31 124.69 228 128 228 L 143.17 228 C 146.48 228 149.17 225.31 149.17 222 C 149.17 218.69 146.48 216 143.17 216 Z M 60 323.53 L 60 384 C 60 407.16 78.84 426 102 426 L 153.76 426 C 170.83 367.37 119.52 311.87 60 323.53 Z M 212.87 238.68 L 202.63 226.47 C 193.06 215.07 198.69 197.5 213.22 193.88 L 228.68 190.02 C 229.41 189.84 230.02 189.39 230.42 188.76 L 238.87 175.24 C 246.77 162.6 265.21 162.57 273.13 175.24 L 281.58 188.76 C 281.98 189.39 282.59 189.84 283.32 190.02 L 298.78 193.88 C 313.25 197.49 318.98 215.02 309.37 226.47 L 299.13 238.68 C 298.65 239.25 298.41 239.98 298.47 240.72 L 299.58 256.62 C 300.61 271.5 285.71 282.36 271.85 276.76 L 257.07 270.8 C 256.38 270.52 255.62 270.52 254.92 270.8 L 240.15 276.76 C 226.31 282.35 211.38 271.53 212.42 256.62 L 213.53 240.72 C 213.59 239.98 213.35 239.25 212.87 238.68 Z M 128 64 C 128 76.15 118.15 86 106 86 C 93.85 86 84 76.15 84 64 C 84 51.85 93.85 42 106 42 C 118.15 42 128 51.85 128 64 Z M 128 380 C 128 392.15 118.15 402 106 402 C 93.85 402 84 392.15 84 380 C 84 367.85 93.85 358 106 358 C 118.15 358 128 367.85 128 380 Z" style="fill: var(--icon-fill, #fff);"/>
</svg>
