<?xml version="1.0" encoding="utf-8"?>
<svg viewBox="0 0 512 512" x="0px" y="0px" width="512px" height="512px" xmlns="http://www.w3.org/2000/svg">
  <path d="M 89.433 440.386 L 89.433 46.698 C 89.475 32.229 100.125 19.978 114.452 17.934 L 114.452 426.584 C 104.611 427.676 95.605 432.638 89.433 440.386 Z M 431.364 420.529 L 431.364 459.517 L 143.642 459.517 C 142.149 459.517 140.773 460.31 140.031 461.602 C 138.429 464.379 140.431 467.857 143.642 467.857 L 431.364 467.857 L 431.364 480.367 C 431.364 487.272 425.76 492.876 418.854 492.876 L 118.622 492.876 C 108.198 492.876 98.557 487.314 93.344 478.282 C 82.111 458.825 96.155 434.498 118.622 434.498 L 402.175 434.498 C 413.517 434.498 424.25 429.369 431.364 420.529 Z M 266.086 338.766 L 345.322 201.535 L 381.434 222.384 L 302.197 359.615 L 266.086 338.766 Z M 390.349 186.523 C 394.11 193.478 393.726 201.935 389.34 208.515 L 389.34 208.557 C 389.34 208.565 387.28 212.268 385.612 215.154 L 349.492 194.304 L 353.304 187.699 C 356.806 180.61 363.945 176.04 371.851 175.815 C 379.474 175.89 386.496 179.951 390.349 186.523 Z M 257.621 228.781 C 257.621 236.729 253.385 244.068 246.504 248.046 C 231.676 256.602 213.137 245.902 213.137 228.781 L 213.137 213.144 L 257.621 213.144 L 257.621 228.781 Z M 231.209 204.804 L 209.968 204.804 C 190.828 194.888 179.202 174.756 180.187 153.222 C 182.13 110.731 229.333 86.279 265.161 109.205 C 300.988 132.131 298.561 185.239 260.79 204.804 L 239.549 204.804 L 239.549 173.53 L 255.186 173.53 C 256.679 173.53 258.055 172.737 258.797 171.445 C 260.398 168.668 258.397 165.19 255.186 165.19 L 215.572 165.19 C 214.079 165.19 212.703 165.982 211.961 167.275 C 210.36 170.052 212.361 173.53 215.572 173.53 L 231.209 173.53 L 231.209 204.804 Z M 264.693 347.572 L 295.275 365.219 L 265.269 381.874 L 264.693 347.572 Z M 431.364 46.698 L 431.364 396.969 C 431.364 413.09 418.295 426.158 402.175 426.158 L 122.792 426.158 L 122.792 17.509 L 402.175 17.509 C 418.295 17.509 431.364 30.578 431.364 46.698 Z M 299.645 87.989 C 300.529 91.074 304.424 92.05 306.651 89.74 L 318.443 77.948 C 319.444 76.913 319.836 75.437 319.486 74.045 C 318.71 70.925 314.857 69.825 312.547 72.051 L 300.755 83.844 C 299.645 84.911 299.22 86.512 299.645 87.989 Z M 231.209 63.378 C 231.209 64.871 232.002 66.247 233.294 66.989 C 236.071 68.59 239.549 66.589 239.549 63.378 L 239.549 46.698 C 239.549 45.206 238.757 43.83 237.464 43.087 C 234.687 41.486 231.209 43.488 231.209 46.698 L 231.209 63.378 Z M 152.315 77.948 L 164.107 89.74 C 165.175 90.849 166.776 91.274 168.252 90.849 C 171.338 89.965 172.314 86.07 170.004 83.844 L 158.211 72.051 C 156.585 70.425 153.941 70.425 152.315 72.051 C 150.689 73.678 150.689 76.321 152.315 77.948 Z M 148.37 353.185 C 146.769 355.962 148.771 359.44 151.981 359.44 L 216.848 359.44 C 218.341 359.44 219.717 358.648 220.459 357.355 C 222.061 354.578 220.059 351.1 216.848 351.1 L 151.981 351.1 C 150.489 351.1 149.113 351.892 148.37 353.185 Z M 230.651 390.714 C 232.252 387.937 230.25 384.459 227.039 384.459 L 151.981 384.459 C 150.489 384.459 149.113 385.252 148.37 386.544 C 146.769 389.321 148.771 392.799 151.981 392.799 L 227.039 392.799 C 228.532 392.799 229.908 392.007 230.651 390.714 Z M 204.797 228.781 C 204.797 239.706 210.627 249.805 220.084 255.268 C 240.475 267.035 265.961 252.324 265.961 228.781 L 265.961 211.351 C 286.752 199.942 299.47 177.916 298.953 154.206 C 297.886 105.26 244.236 75.838 202.387 101.232 C 160.538 126.635 161.881 187.807 204.797 211.351 L 204.797 228.781 Z M 396.595 212.66 C 402.442 203.503 402.834 191.877 397.604 182.353 C 392.217 173.221 382.451 167.575 371.851 167.475 C 360.968 167.709 351.085 173.863 346.081 183.529 L 256.804 338.207 C 256.42 338.857 256.229 339.6 256.237 340.359 L 257.071 388.979 C 257.121 392.132 260.515 394.092 263.267 392.557 L 305.8 368.956 C 306.459 368.58 307.001 368.038 307.376 367.379 C 307.376 367.379 396.153 213.502 396.612 212.668 L 396.595 212.66 Z" style="fill: var(--icon-fill, #fff);"/>
</svg>
