<?xml version="1.0" encoding="utf-8"?>
<svg viewBox="0 0 512 512" x="0px" y="0px" width="512px" height="512px" xmlns="http://www.w3.org/2000/svg">
  <path d="M 173.52 180.75 C 179.1 183.33 181.79 189.69 179.85 195.53 C 176.08 206.85 176.81 217.47 180.32 226.48 C 181.07 228.39 180.86 230.54 179.67 232.21 C 168.7 247.56 151.22 261.47 133.65 260.42 C 130.38 260.22 127.91 257.39 128.07 254.12 C 128.75 239.77 125.24 223.87 114.02 214.03 C 109.56 210.11 108.64 203.53 111.9 198.58 L 129.59 171.75 C 132.85 166.8 139.24 164.97 144.62 167.45 L 173.51 180.74 Z M 332.33 232.19 C 331.14 230.52 330.93 228.36 331.68 226.45 C 335.2 217.44 335.92 206.82 332.16 195.5 C 330.21 189.66 332.9 183.29 338.49 180.72 L 367.38 167.43 C 372.76 164.96 379.15 166.78 382.41 171.73 L 400.1 198.56 C 403.36 203.52 402.44 210.1 397.98 214.01 C 386.76 223.85 383.24 239.74 383.93 254.1 C 384.09 257.38 381.62 260.21 378.35 260.4 C 360.84 261.43 343.32 247.57 332.33 232.2 Z M 27 423 C 27 406.43 40.43 393 57 393 L 455 393 C 471.57 393 485 406.43 485 423 C 485 439.57 471.57 453 455 453 L 57 453 C 40.43 453 27 439.57 27 423 Z M 76.56 203.11 C 112.94 355.83 253.89 221.51 194.26 132.2 C 187.54 122.14 189.47 108.64 198.64 100.76 L 240.37 64.92 C 249.36 57.2 262.65 57.2 271.64 64.92 L 313.37 100.76 C 322.54 108.64 324.46 122.14 317.75 132.2 C 258.12 221.51 399.07 355.83 435.45 203.11 C 436.45 198.91 439.62 195.56 443.77 194.35 L 484.46 182.5 C 492.38 180.2 500.21 186.38 499.81 194.62 C 495.95 273.36 464.11 315.8 455.57 375.54 C 455.12 378.67 452.44 381.01 449.27 381.01 L 62.48 381.01 C 59.31 381.01 56.64 378.66 56.19 375.52 C 47.7 315.8 16.04 273.36 12.2 194.66 C 11.79 186.4 19.6 180.18 27.54 182.49 L 68.23 194.34 C 72.38 195.55 75.55 198.9 76.55 203.1 Z M 360 331 C 360 344.25 370.75 355 384 355 C 397.25 355 408 344.25 408 331 C 408 317.75 397.25 307 384 307 C 370.75 307 360 317.75 360 331 Z M 236.61 114.2 C 231.71 119.1 231.71 127.04 236.61 131.94 L 247.13 142.46 C 252.03 147.36 259.97 147.36 264.87 142.46 L 275.39 131.94 C 280.29 127.04 280.29 119.1 275.39 114.2 L 264.87 103.68 C 259.97 98.78 252.03 98.78 247.13 103.68 Z M 212.83 283.21 C 202.19 285.87 198 298.75 205.05 307.15 L 215.75 319.91 C 217.29 321.75 218.06 324.12 217.89 326.51 L 216.73 343.12 C 215.96 354.07 226.92 362.03 237.09 357.92 L 252.53 351.68 C 254.76 350.78 257.24 350.78 259.47 351.68 L 274.91 357.92 C 285.08 362.02 296.03 354.06 295.27 343.12 L 294.11 326.51 C 293.94 324.11 294.71 321.75 296.25 319.91 L 306.95 307.15 C 314 298.75 309.81 285.86 299.17 283.21 L 283.02 279.18 C 280.69 278.6 278.68 277.14 277.41 275.1 L 268.58 260.98 C 262.77 251.68 249.22 251.68 243.41 260.98 L 234.58 275.1 C 233.31 277.14 231.3 278.6 228.97 279.18 L 212.82 283.21 Z M 104 331.01 C 104 344.26 114.75 355.01 128 355.01 C 141.25 355.01 152 344.26 152 331.01 C 152 317.76 141.25 307.01 128 307.01 C 114.75 307.01 104 317.76 104 331.01 Z" style="fill: var(--icon-fill, #fff);"/>
</svg>
