<?xml version="1.0" encoding="utf-8"?>
<svg viewBox="0 0 512 512" x="0px" y="0px" width="512px" height="512px" xmlns="http://www.w3.org/2000/svg">
  <path d="M 424.848 341.786 L 431.196 190.558 C 435.409 190.32 438.709 186.844 438.733 182.623 C 438.733 182.623 438.019 91.061 438.019 90.823 C 448.072 101.352 457.077 112.833 464.917 125.099 C 484.395 154.774 495.122 189.344 495.86 224.834 C 496.408 274.162 468.876 319.522 424.848 341.786 Z M 41.62 412.877 C 16.468 367.81 -3.764 231.102 47.174 130.733 C 80.816 64.402 138.102 25.841 217.524 16.002 C 258.434 10.663 300.025 14.677 339.157 27.745 C 324.828 46.327 315.727 68.409 312.816 91.696 C 312.657 92.489 312.26 182.623 312.26 182.623 C 312.284 186.844 315.585 190.32 319.798 190.558 L 327.177 367.731 C 295.995 377.363 227.712 385.79 194.435 453.025 C 187.152 474.091 167.221 488.15 144.925 487.936 C 109.062 487.936 66.217 456.992 41.62 412.877 Z M 286.172 283.984 C 284.53 268.742 270.843 257.714 255.601 259.348 C 250.753 259.864 246.128 261.649 242.192 264.513 C 224.911 277.105 227.736 303.677 247.278 312.349 C 266.82 321.014 288.417 305.28 286.156 284.024 L 286.172 283.984 Z M 198.585 120.497 C 199.252 126.734 201.552 132.685 205.25 137.755 C 221.452 159.947 255.617 156.281 266.741 131.145 C 277.857 106.017 257.601 78.263 230.275 81.199 C 210.677 83.301 196.49 100.9 198.585 120.497 Z M 97.176 209.283 C 97.764 214.829 99.811 220.129 103.103 224.635 C 117.504 244.368 147.869 241.115 157.755 218.772 C 167.649 196.437 149.646 171.769 125.351 174.372 C 107.935 176.236 95.328 191.867 97.176 209.283 Z M 84.973 354.774 C 85.489 359.622 87.274 364.24 90.147 368.175 C 102.746 385.448 129.318 382.608 137.975 363.066 C 146.631 343.523 130.889 321.934 109.633 324.203 C 94.384 325.838 83.339 339.524 84.973 354.774 Z M 328.367 94.79 C 331.62 59.959 363.436 18.383 372.482 14.733 C 374.259 14.051 376.219 13.995 378.036 14.574 C 388.112 18.065 418.501 59.403 422.468 93.283 C 424.158 104.645 421.889 116.245 416.041 126.131 C 419.921 126.678 422.825 129.987 422.865 133.906 L 422.865 166.755 C 422.841 170.698 419.873 173.999 415.962 174.451 L 403.981 462.943 C 403.6 472.29 398.649 480.859 390.746 485.865 C 372.204 497.6 347.909 484.873 347.012 462.943 L 335.032 174.451 C 331.12 173.999 328.153 170.698 328.129 166.755 L 328.129 133.906 C 328.145 129.971 331.057 126.655 334.952 126.131 C 329.343 116.705 327.026 105.676 328.367 94.79 Z M 375.417 32.506 C 366.293 42.741 343.601 75.113 343.918 101.296 C 343.609 111.064 348.234 120.339 356.216 125.972 L 394.777 125.972 C 402.727 120.458 407.329 111.286 406.996 101.614 C 407.472 75.589 385.018 43.217 375.417 32.506 Z" style="fill: var(--icon-fill, #fff);"/>
</svg>
