<?xml version="1.0" encoding="utf-8"?>
<svg viewBox="0 0 512 512" x="0px" y="0px" width="512px" height="512px" xmlns="http://www.w3.org/2000/svg">
  <path d="M 117.443 43.27 L 117.443 116.61 C 117.443 129.151 124.135 140.749 135 147.02 C 158.407 160.534 187.673 143.639 187.673 116.61 L 187.673 43.27 C 187.663 34.14 192.619 25.723 200.615 21.298 C 208.3 16.814 217.821 16.934 225.396 21.599 C 317.748 77.562 314.959 212.494 220.38 264.594 C 215.654 267.233 212.735 272.229 212.755 277.637 L 212.755 432.644 C 212.755 454.154 201.277 474.019 182.656 484.774 C 142.525 507.95 92.361 478.985 92.361 432.644 L 92.361 277.637 C 92.381 272.229 89.461 267.233 84.736 264.594 C -9.843 212.494 -12.633 77.562 79.719 21.599 C 87.304 16.994 96.805 16.874 104.501 21.298 C 112.497 25.723 117.453 34.14 117.443 43.27 Z M 493.673 257.07 L 493.673 267.102 C 493.673 280.958 482.447 292.184 468.591 292.184 L 463.575 292.184 L 463.575 317.266 C 462.221 330.299 468.26 343.001 479.226 350.174 C 487.875 354.097 493.493 362.645 493.673 372.146 L 493.673 427.627 C 493.603 463.615 464.448 492.771 428.46 492.841 L 358.23 492.841 C 322.243 492.771 293.087 463.615 293.017 427.627 L 293.017 372.146 C 293.198 362.645 298.816 354.097 307.464 350.174 C 318.43 343.001 324.47 330.299 323.116 317.266 L 323.116 292.184 L 318.099 292.184 C 304.244 292.184 293.017 280.958 293.017 267.102 L 293.017 257.07 C 293.017 243.214 304.244 231.987 318.099 231.987 L 363.247 231.987 L 363.247 109.587 C 363.247 108.624 362.966 107.681 362.444 106.878 L 350.505 88.92 C 345.489 81.455 344.877 71.874 348.9 63.837 L 371.072 19.593 C 373.591 14.476 378.808 11.245 384.516 11.266 L 402.174 11.266 C 407.883 11.245 413.1 14.476 415.618 19.593 L 437.791 63.837 C 441.814 71.874 441.202 81.455 436.185 88.92 L 424.246 106.878 C 423.725 107.681 423.444 108.624 423.444 109.587 L 423.444 231.987 L 468.591 231.987 C 482.447 231.987 493.673 243.214 493.673 257.07 Z M 370.771 101.26 C 372.387 103.738 373.25 106.627 373.28 109.587 L 373.28 231.987 L 413.411 231.987 L 413.411 109.587 C 413.441 106.627 414.304 103.738 415.919 101.26 L 427.858 83.401 C 430.848 78.917 431.189 73.168 428.761 68.352 L 406.689 24.108 C 405.826 22.402 404.08 21.318 402.174 21.298 L 384.516 21.298 C 382.61 21.318 380.864 22.402 380.002 24.108 L 357.929 68.352 C 355.502 73.168 355.843 78.917 358.832 83.401 L 370.771 101.26 Z M 408.395 347.365 C 408.395 341.827 403.9 337.332 398.362 337.332 L 388.329 337.332 C 382.791 337.332 378.296 341.827 378.296 347.365 L 378.296 427.627 C 378.296 433.166 382.791 437.66 388.329 437.66 L 398.362 437.66 C 403.9 437.66 408.395 433.166 408.395 427.627 L 408.395 347.365 Z M 483.641 257.07 C 483.641 248.762 476.899 242.02 468.591 242.02 L 318.099 242.02 C 309.792 242.02 303.05 248.762 303.05 257.07 L 303.05 267.102 C 303.05 275.41 309.792 282.152 318.099 282.152 L 468.591 282.152 C 476.899 282.152 483.641 275.41 483.641 267.102 L 483.641 257.07 Z" style="fill: var(--icon-fill, #fff);"/>
</svg>
