<?xml version="1.0" encoding="utf-8"?>
<svg viewBox="0 0 512 512" x="0px" y="0px" width="512px" height="512px" xmlns="http://www.w3.org/2000/svg">
  <path d="M 12 155 C 12 101.47 41.41 54.82 84.96 30.32 C 94.31 25.06 106.15 26.7 113.72 34.49 C 116.71 37.57 115.54 42.68 111.55 44.26 C 91.26 52.27 73.19 65.94 59.97 83.45 C 27.61 126.32 28.37 184.69 59.97 226.56 C 73.19 244.07 91.26 257.74 111.55 265.75 C 115.57 267.34 116.7 272.47 113.68 275.56 C 106.11 283.31 94.29 284.94 84.96 279.69 C 41.41 255.18 12 208.53 12 155 Z M 427.05 30.31 C 470.6 54.82 500.01 101.47 500.01 155 C 500.01 208.53 470.59 255.18 427.05 279.69 C 417.7 284.95 405.86 283.31 398.29 275.52 C 395.29 272.44 396.46 267.32 400.45 265.75 C 444.12 248.54 476 205.95 476 155 C 476 104.05 444.11 61.46 400.45 44.25 C 396.43 42.66 395.3 37.53 398.32 34.44 C 405.89 26.69 417.71 25.06 427.04 30.31 Z M 48 155 C 48 108.52 77.79 68.88 119.27 54.14 C 121.98 53.18 124.98 54.22 126.47 56.69 C 132.56 66.81 139.88 76.11 148.2 84.39 C 149.34 85.53 150 87.06 150 88.67 L 150 221.33 C 150 222.94 149.34 224.47 148.2 225.61 C 139.88 233.89 132.56 243.19 126.47 253.31 C 124.99 255.78 121.98 256.82 119.27 255.86 C 77.78 241.12 48 201.47 48 155 Z M 385.53 253.31 C 379.44 243.19 372.12 233.89 363.8 225.61 C 362.66 224.47 362 222.94 362 221.33 L 362 88.67 C 362 87.06 362.66 85.53 363.8 84.39 C 372.12 76.11 379.44 66.81 385.53 56.69 C 387.01 54.22 390.02 53.18 392.73 54.14 C 434.22 68.88 464 108.52 464 155 C 464 201.48 434.21 241.12 392.73 255.86 C 390.02 256.82 387.02 255.78 385.53 253.31 Z M 310 446 C 310 475.82 285.82 500 256 500 C 226.18 500 202 475.82 202 446 L 202 388 C 202 378.06 210.06 370 220 370 L 292 370 C 301.94 370 310 378.06 310 388 Z M 227 254 L 285 254 C 288.314 254 291 256.686 291 260 L 291 352 C 291 355.314 288.314 358 285 358 L 227 358 C 223.686 358 221 355.314 221 352 L 221 260 C 221 256.686 223.686 254 227 254 Z M 294.26 242 L 217.74 242 C 211.11 242 205.74 236.63 205.74 230 L 205.74 226.77 C 205.74 223.46 208.43 220.77 211.74 220.77 L 300.26 220.77 C 303.57 220.77 306.26 223.46 306.26 226.77 L 306.26 230 C 306.26 236.63 300.89 242 294.26 242 Z M 226.05 89 C 222.14 89 219.23 85.31 220.23 81.53 C 224.41 65.68 238.84 54 256 54 C 273.16 54 287.59 65.69 291.77 81.53 C 292.77 85.31 289.86 89 285.95 89 Z M 167.22 209.71 C 165.02 211.24 162 209.64 162 206.96 L 162 103.06 C 162 100.37 165.02 98.77 167.22 100.31 C 172.32 103.87 177.65 107.09 183.2 109.97 C 184.31 110.56 185.02 111.7 185.01 112.96 C 184.98 117.19 185 132.88 185 197.01 C 185 197.79 184.7 199.26 183.2 200.04 C 177.65 202.92 172.31 206.15 167.22 209.7 Z M 326.99 197.01 C 326.99 197.01 327.02 117.37 326.98 113.04 C 326.97 111.72 327.71 110.53 328.87 109.93 C 334.32 107.09 339.56 103.93 344.57 100.45 C 346.86 98.86 350 100.52 350 103.31 L 350 206.7 C 350 209.49 346.86 211.14 344.57 209.55 C 339.56 206.07 334.32 202.91 328.88 200.08 C 327.73 199.48 327 198.3 327 197 Z M 209 101 L 303 101 C 309.627 101 315 106.373 315 113 L 315 197 C 315 203.627 309.627 209 303 209 L 209 209 C 202.373 209 197 203.627 197 197 L 197 113 C 197 106.373 202.373 101 209 101 Z" style="fill: var(--icon-fill, #fff);"/>
</svg>
